<svg xmlns="http://www.w3.org/2000/svg" viewBox="0 0 900 340" font-family="-apple-system,'Segoe UI',sans-serif">
<rect width="900" height="340" fill="#f3f3f7"/>
<rect x="20" y="15" width="110" height="24" rx="12" fill="#5b5fd6"/>
<text x="75" y="31" font-size="10" font-weight="700" fill="#fff" text-anchor="middle">ÉTAPE 2 / 3</text>
<text x="140" y="33" font-size="12" font-weight="600" fill="#535679">Sync automatique des transactions</text>
<rect x="20" y="60" width="860" height="220" rx="10" fill="#fff" stroke="#e1e1ec"/>

<text x="40" y="90" font-size="14" font-weight="700" fill="#202037">Transactions ING · Dernier sync : il y a 15 min</text>
<rect x="40" y="115" width="820" height="30" fill="#f3f3f7"/>
<text x="55" y="135" font-size="10" font-weight="700" fill="#727496">DATE</text>
<text x="180" y="135" font-size="10" font-weight="700" fill="#727496">LIBELLÉ</text>
<text x="700" y="135" font-size="10" font-weight="700" fill="#727496" text-anchor="end">MONTANT</text>
<text x="820" y="135" font-size="10" font-weight="700" fill="#727496" text-anchor="end">STATUT</text>
<text x="55" y="170" font-size="11" fill="#202037">24/07/2026</text>
<text x="180" y="170" font-size="11" fill="#202037">VIREMENT CLIENT A - FAC 2026-089</text>
<text x="700" y="170" font-size="12" font-weight="700" fill="#059669" text-anchor="end">+16 637,50</text>
<rect x="740" y="155" width="100" height="24" rx="4" fill="#dcfce7"/>
<text x="790" y="171" font-size="10" font-weight="700" fill="#065f46" text-anchor="middle">RÉCONCILIÉ</text>
<text x="55" y="205" font-size="11" fill="#202037">22/07/2026</text>
<text x="180" y="205" font-size="11" fill="#202037">SALAIRES JUILLET</text>
<text x="700" y="205" font-size="12" font-weight="600" fill="#dc2626" text-anchor="end">-15 200,00</text>
<rect x="740" y="190" width="100" height="24" rx="4" fill="#dcfce7"/>
<text x="790" y="206" font-size="10" font-weight="700" fill="#065f46" text-anchor="middle">RÉCONCILIÉ</text>
<text x="55" y="240" font-size="11" fill="#202037">21/07/2026</text>
<text x="180" y="240" font-size="11" fill="#202037">COFFEE TIME SPRL</text>
<text x="700" y="240" font-size="12" font-weight="600" fill="#dc2626" text-anchor="end">-299,48</text>
<rect x="740" y="225" width="100" height="24" rx="4" fill="#fef3c7"/>
<text x="790" y="241" font-size="10" font-weight="700" fill="#78350f" text-anchor="middle">À MATCHER</text>

<text x="20" y="325" font-size="11" fill="#535679" font-style="italic">Le sync est automatique. Chaque tx est proposée en réconciliation vs cashflow.</text>
</svg>