<svg xmlns="http://www.w3.org/2000/svg" viewBox="0 0 900 340" font-family="-apple-system,'Segoe UI',sans-serif">
  <rect width="900" height="340" fill="#f3f3f7"/>
  <rect x="20" y="15" width="110" height="24" rx="12" fill="#ef4444"/>
  <text x="75" y="31" font-size="10" font-weight="700" fill="#fff" text-anchor="middle">ÉTAPE 4 / 4</text>
  <text x="140" y="33" font-size="12" font-weight="600" fill="#535679">Supprimer une entrée depuis "Ce mois-ci"</text>

  <rect x="20" y="60" width="860" height="220" rx="10" fill="#fff" stroke="#e1e1ec"/>
  <rect x="20" y="60" width="860" height="35" fill="#eef2ff"/>
  <text x="40" y="83" font-size="13" font-weight="700" fill="#5b5fd6">Ce mois-ci — Octobre 2026</text>

  <rect x="40" y="115" width="820" height="55" rx="8" fill="#fff" stroke="#e1e1ec"/>
  <text x="55" y="140" font-size="12" font-weight="600" fill="#202037">Subside Digital Wallonia</text>
  <text x="55" y="157" font-size="10" fill="#535679">Récurrent · Date : 15/10/2026 · Statut PLANNED</text>
  <text x="720" y="145" font-size="14" font-weight="700" fill="#059669" text-anchor="end">+8 500,00 €</text>
  <rect x="740" y="127" width="30" height="28" rx="4" fill="#eef2ff"/>
  <text x="755" y="146" font-size="14" fill="#5b5fd6" text-anchor="middle">✓</text>
  <rect x="780" y="127" width="60" height="28" rx="4" fill="#fef2f2" stroke="#ef4444" stroke-width="2"/>
  <text x="810" y="146" font-size="12" fill="#dc2626" text-anchor="middle">🗑 Supprimer</text>

  <rect x="40" y="185" width="820" height="80" rx="8" fill="#fef2f2" stroke="#ef4444"/>
  <text x="55" y="210" font-size="12" font-weight="700" fill="#7f1d1d">⚠ Attention : suppression irréversible</text>
  <text x="55" y="230" font-size="11" fill="#991b1b">Si la ligne est récurrente (comme ici), TOUS les mois sont supprimés — pas juste octobre.</text>
  <text x="55" y="248" font-size="11" fill="#991b1b">Pour ne supprimer qu'un mois : passe par la modal cellule et mets à zéro.</text>

  <text x="20" y="320" font-size="11" fill="#535679" font-style="italic">Le bouton corbeille sur les OneOff apparaît directement dans "Ce mois-ci" — pas besoin d'aller chercher.</text>
</svg>
