<svg xmlns="http://www.w3.org/2000/svg" viewBox="0 0 900 400" font-family="-apple-system,'Segoe UI',sans-serif">
  <rect width="900" height="400" fill="rgba(0,0,0,0.5)"/>
  <rect x="150" y="30" width="600" height="340" rx="12" fill="#fff"/>

  <rect x="20" y="10" width="110" height="24" rx="12" fill="#5b5fd6"/>
  <text x="75" y="26" font-size="10" font-weight="700" fill="#fff" text-anchor="middle">ÉTAPE 2 / 4</text>

  <text x="180" y="70" font-size="16" font-weight="700" fill="#202037">Nouvelle entrée ponctuelle</text>

  <text x="180" y="105" font-size="10" font-weight="600" fill="#727496">CATÉGORIE *</text>
  <rect x="180" y="115" width="540" height="34" rx="4" fill="#f3f3f7" stroke="#c2c3d6"/>
  <text x="195" y="137" font-size="12" fill="#202037">Subside régional</text>

  <text x="180" y="170" font-size="10" font-weight="600" fill="#727496">MONTANT (positif = recette, négatif = dépense)</text>
  <rect x="180" y="180" width="200" height="34" rx="4" fill="#f3f3f7" stroke="#c2c3d6"/>
  <text x="195" y="202" font-size="14" font-weight="600" fill="#059669">+8 500,00 €</text>

  <text x="400" y="170" font-size="10" font-weight="600" fill="#727496">DATE PRÉVUE</text>
  <rect x="400" y="180" width="200" height="34" rx="4" fill="#f3f3f7" stroke="#c2c3d6"/>
  <text x="415" y="202" font-size="12" fill="#202037">15/10/2026</text>

  <text x="180" y="240" font-size="10" font-weight="600" fill="#727496">DESCRIPTION</text>
  <rect x="180" y="250" width="540" height="34" rx="4" fill="#f3f3f7" stroke="#c2c3d6"/>
  <text x="195" y="272" font-size="12" fill="#202037">Digital Wallonia — Aide numérique 2026</text>

  <rect x="180" y="300" width="24" height="24" rx="4" fill="#5b5fd6"/>
  <path d="M 186 311 L 192 318 L 200 305" stroke="#fff" stroke-width="2.5" fill="none"/>
  <text x="215" y="318" font-size="12" fill="#202037">Récurrent</text>
  <text x="290" y="318" font-size="11" fill="#535679">(fin le 15/03/2027 — subside sur 6 mois)</text>

  <rect x="600" y="330" width="120" height="30" rx="6" fill="#5b5fd6"/>
  <text x="660" y="350" font-size="12" font-weight="600" fill="#fff" text-anchor="middle">Enregistrer</text>

  <text x="180" y="392" font-size="10" fill="#fff" font-style="italic">Positif = recette, négatif = dépense. Récurrent = cochable avec date de fin.</text>
</svg>
