<svg xmlns="http://www.w3.org/2000/svg" viewBox="0 0 1200 500" font-family="-apple-system,'Segoe UI',sans-serif">
  <rect width="1200" height="500" fill="#fff"/>
  <text x="30" y="35" fill="#202037" font-size="20" font-weight="700">Cashflow 2026</text>
  <text x="30" y="55" fill="#535679" font-size="12">Solde compte : 62 300 € · En cours : 18 400 €</text>

  <!-- Header mois -->
  <g font-size="11" fill="#727496" font-weight="600" text-anchor="middle">
    <rect x="30" y="80" width="200" height="30" fill="#f3f3f7"/>
    <text x="130" y="99">Poste</text>
    <text x="272" y="99">Jan</text><text x="352" y="99">Fév</text><text x="432" y="99">Mar</text>
    <text x="512" y="99">Avr</text><text x="592" y="99">Mai</text><text x="672" y="99">Juin</text>
    <text x="752" y="99">Juil</text><text x="832" y="99">Aoû</text><text x="912" y="99">Sep</text>
    <text x="992" y="99">Oct</text><text x="1072" y="99">Nov</text><text x="1152" y="99">Déc</text>
  </g>

  <!-- Section RECETTES -->
  <rect x="30" y="115" width="1145" height="24" fill="#dcfce7"/>
  <text x="40" y="132" font-size="11" font-weight="700" fill="#166534">RECETTES</text>

  <!-- Mission Projet A -->
  <text x="40" y="160" font-size="12" fill="#202037">Mission ACME 2026 (Alice)</text>
  <g font-size="10" text-anchor="middle" font-weight="600">
    <rect x="232" y="145" width="80" height="24" fill="#dcfce7"/><text x="272" y="161" fill="#166534">12 500</text>
    <rect x="312" y="145" width="80" height="24" fill="#dcfce7"/><text x="352" y="161" fill="#166534">12 500</text>
    <rect x="392" y="145" width="80" height="24" fill="#dbeafe"/><text x="432" y="161" fill="#1e40af">13 750</text>
    <rect x="472" y="145" width="80" height="24" fill="#f3f3f7"/><text x="512" y="161" fill="#535679">13 750</text>
    <rect x="552" y="145" width="80" height="24" fill="#f3f3f7"/><text x="592" y="161" fill="#535679">13 750</text>
    <rect x="632" y="145" width="80" height="24" fill="#f3f3f7"/><text x="672" y="161" fill="#535679">13 750</text>
    <rect x="712" y="145" width="80" height="24" fill="#f3f3f7"/><text x="752" y="161" fill="#535679">13 750</text>
    <rect x="792" y="145" width="80" height="24" fill="#f3f3f7"/><text x="832" y="161" fill="#535679">13 750</text>
  </g>

  <!-- Mission Projet B -->
  <text x="40" y="192" font-size="12" fill="#202037">Mission Beta Corp (Bob)</text>
  <g font-size="10" text-anchor="middle" font-weight="600">
    <rect x="232" y="177" width="80" height="24" fill="#dcfce7"/><text x="272" y="193" fill="#166534">8 250</text>
    <rect x="312" y="177" width="80" height="24" fill="#dcfce7"/><text x="352" y="193" fill="#166534">8 250</text>
    <rect x="392" y="177" width="80" height="24" fill="#dcfce7"/><text x="432" y="193" fill="#166534">8 250</text>
    <rect x="472" y="177" width="80" height="24" fill="#dbeafe"/><text x="512" y="193" fill="#1e40af">8 250</text>
    <rect x="552" y="177" width="80" height="24" fill="#f3f3f7"/><text x="592" y="193" fill="#535679">8 250</text>
    <rect x="632" y="177" width="80" height="24" fill="#f3f3f7"/><text x="672" y="193" fill="#535679">8 250</text>
  </g>

  <!-- Section DÉPENSES -->
  <rect x="30" y="220" width="1145" height="24" fill="#fee2e2"/>
  <text x="40" y="237" font-size="11" font-weight="700" fill="#991b1b">DÉPENSES</text>

  <!-- Loyer -->
  <text x="40" y="264" font-size="12" fill="#202037">Loyer bureau</text>
  <g font-size="10" text-anchor="middle" font-weight="600">
    <rect x="232" y="250" width="80" height="24" fill="#fecaca"/><text x="272" y="265" fill="#991b1b">-1 200</text>
    <rect x="312" y="250" width="80" height="24" fill="#fecaca"/><text x="352" y="265" fill="#991b1b">-1 200</text>
    <rect x="392" y="250" width="80" height="24" fill="#fecaca"/><text x="432" y="265" fill="#991b1b">-1 200</text>
    <rect x="472" y="250" width="80" height="24" fill="#f3f3f7"/><text x="512" y="265" fill="#535679">-1 200</text>
    <rect x="552" y="250" width="80" height="24" fill="#f3f3f7"/><text x="592" y="265" fill="#535679">-1 200</text>
    <rect x="632" y="250" width="80" height="24" fill="#f3f3f7"/><text x="672" y="265" fill="#535679">-1 200</text>
  </g>

  <!-- Payroll -->
  <text x="40" y="296" font-size="12" fill="#202037">Payroll — Salaires nets</text>
  <g font-size="10" text-anchor="middle" font-weight="600">
    <rect x="232" y="282" width="80" height="24" fill="#fecaca"/><text x="272" y="297" fill="#991b1b">-8 400</text>
    <rect x="312" y="282" width="80" height="24" fill="#fecaca"/><text x="352" y="297" fill="#991b1b">-8 400</text>
    <rect x="392" y="282" width="80" height="24" fill="#fecaca"/><text x="432" y="297" fill="#991b1b">-8 400</text>
    <rect x="472" y="282" width="80" height="24" fill="#f3f3f7"/><text x="512" y="297" fill="#535679">-8 400</text>
    <rect x="552" y="282" width="80" height="24" fill="#f3f3f7"/><text x="592" y="297" fill="#535679">-8 400</text>
    <rect x="632" y="282" width="80" height="24" fill="#f3f3f7"/><text x="672" y="297" fill="#535679">-8 400</text>
  </g>

  <!-- Solde mois -->
  <rect x="30" y="330" width="1145" height="30" fill="#5b5fd6"/>
  <text x="40" y="350" font-size="12" font-weight="700" fill="#fff">SOLDE FIN DE MOIS</text>
  <g font-size="11" text-anchor="middle" font-weight="700" fill="#fff">
    <text x="272" y="350">62 300</text><text x="352" y="350">73 450</text><text x="432" y="350">86 850</text>
    <text x="512" y="350">99 250</text><text x="592" y="350">111 650</text><text x="672" y="350">124 050</text>
  </g>

  <!-- Légende -->
  <g font-size="11" fill="#535679">
    <rect x="30" y="390" width="18" height="14" fill="#f3f3f7"/><text x="55" y="401">PLANNED</text>
    <rect x="130" y="390" width="18" height="14" fill="#dbeafe"/><text x="155" y="401">INVOICED</text>
    <rect x="240" y="390" width="18" height="14" fill="#dcfce7"/><text x="265" y="401">PAID</text>
    <text x="330" y="401" fill="#727496">— Clique une cellule pour changer son statut</text>
  </g>

  <text x="30" y="450" font-size="10" fill="#a1a1b8" font-style="italic">Données de démonstration — remplace-moi par une vraie capture depuis l'éditeur</text>
</svg>
