<svg xmlns="http://www.w3.org/2000/svg" viewBox="0 0 900 340" font-family="-apple-system,'Segoe UI',sans-serif">
  <rect width="900" height="340" fill="#f3f3f7"/>
  <rect x="20" y="15" width="110" height="24" rx="12" fill="#059669"/>
  <text x="75" y="31" font-size="10" font-weight="700" fill="#fff" text-anchor="middle">ÉTAPE 3 / 4</text>
  <text x="140" y="33" font-size="12" font-weight="600" fill="#535679">La ligne apparaît dans la grille + panneau du mois</text>

  <rect x="20" y="60" width="860" height="220" rx="10" fill="#fff" stroke="#e1e1ec"/>

  <text x="40" y="90" font-size="13" font-weight="700" fill="#202037">Grille cashflow — nouvelle ligne visible</text>

  <g font-size="10" fill="#727496" text-anchor="middle">
    <rect x="40" y="105" width="200" height="26" fill="#f3f3f7"/>
    <text x="140" y="122">Poste</text>
    <rect x="240" y="105" width="80" height="26" fill="#f3f3f7"/><text x="280" y="122">Sep</text>
    <rect x="320" y="105" width="80" height="26" fill="#f3f3f7"/><text x="360" y="122">Oct</text>
    <rect x="400" y="105" width="80" height="26" fill="#f3f3f7"/><text x="440" y="122">Nov</text>
    <rect x="480" y="105" width="80" height="26" fill="#f3f3f7"/><text x="520" y="122">Déc</text>
    <rect x="560" y="105" width="80" height="26" fill="#f3f3f7"/><text x="600" y="122">Jan</text>
    <rect x="640" y="105" width="80" height="26" fill="#f3f3f7"/><text x="680" y="122">Fév</text>
    <rect x="720" y="105" width="80" height="26" fill="#f3f3f7"/><text x="760" y="122">Mar</text>
  </g>

  <rect x="40" y="140" width="820" height="40" fill="#dcfce7" stroke="#059669" stroke-width="2"/>
  <text x="55" y="165" font-size="12" font-weight="700" fill="#065f46">Subside Digital Wallonia (récurrent)</text>

  <g font-size="10" font-weight="600" text-anchor="middle">
    <rect x="240" y="140" width="80" height="40" fill="#f3f3f7"/>
    <text x="280" y="164" fill="#a1a1b8">—</text>
    <rect x="320" y="140" width="80" height="40" fill="#dcfce7"/><text x="360" y="164" fill="#059669">+8 500</text>
    <rect x="400" y="140" width="80" height="40" fill="#dcfce7"/><text x="440" y="164" fill="#059669">+8 500</text>
    <rect x="480" y="140" width="80" height="40" fill="#dcfce7"/><text x="520" y="164" fill="#059669">+8 500</text>
    <rect x="560" y="140" width="80" height="40" fill="#dcfce7"/><text x="600" y="164" fill="#059669">+8 500</text>
    <rect x="640" y="140" width="80" height="40" fill="#dcfce7"/><text x="680" y="164" fill="#059669">+8 500</text>
    <rect x="720" y="140" width="80" height="40" fill="#dcfce7"/><text x="760" y="164" fill="#059669">+8 500</text>
  </g>

  <text x="55" y="215" font-size="11" fill="#535679">💡 Une seule saisie → 6 cellules créées automatiquement (oct 2026 → mar 2027).</text>
  <text x="55" y="238" font-size="11" fill="#535679">Chaque cellule est individuellement PAID-able quand tu reçois vraiment le virement.</text>

  <text x="20" y="320" font-size="11" fill="#535679" font-style="italic">Récurrent avec date de fin = ERP génère toutes les échéances. Pas besoin de saisir 6 fois.</text>
</svg>
