<svg xmlns="http://www.w3.org/2000/svg" viewBox="0 0 900 340" font-family="-apple-system,'Segoe UI',sans-serif"><rect width="900" height="340" fill="#f3f3f7"/><rect x="20" y="15" width="110" height="24" rx="12" fill="#5b5fd6"/><text x="75" y="31" font-size="10" font-weight="700" fill="#fff" text-anchor="middle">ÉTAPE 3 / 4</text><text x="140" y="33" font-size="12" font-weight="600" fill="#535679">Vérifier le résultat pré-rempli</text><rect x="20" y="60" width="860" height="220" rx="10" fill="#fff" stroke="#e1e1ec"/><text x="40" y="90" font-size="13" font-weight="700" fill="#059669">✓ Claude a extrait :</text><text x="40" y="120" font-size="11" font-weight="600" fill="#727496">PRÉNOM</text><rect x="40" y="128" width="200" height="34" rx="4" fill="#dcfce7" stroke="#059669"/><text x="55" y="150" font-size="12" fill="#202037">Diane</text><text x="260" y="120" font-size="11" font-weight="600" fill="#727496">NOM</text><rect x="260" y="128" width="200" height="34" rx="4" fill="#dcfce7" stroke="#059669"/><text x="275" y="150" font-size="12" fill="#202037">Nouveau</text><text x="480" y="120" font-size="11" font-weight="600" fill="#727496">POSTE ACTUEL</text><rect x="480" y="128" width="380" height="34" rx="4" fill="#dcfce7" stroke="#059669"/><text x="495" y="150" font-size="12" fill="#202037">Data Engineer</text><text x="40" y="185" font-size="11" font-weight="600" fill="#727496">2 EXPÉRIENCES EXTRAITES</text><rect x="40" y="195" width="820" height="34" rx="4" fill="#eef2ff"/><text x="55" y="217" font-size="11" fill="#202037">Beta Corp — Data Engineer (2023 → présent)</text><rect x="40" y="235" width="820" height="34" rx="4" fill="#eef2ff"/><text x="55" y="257" font-size="11" fill="#202037">Delta SA — Junior Analyst (2021 → 2023)</text><text x="20" y="325" font-size="11" fill="#535679" font-style="italic">Corrige à la main ce qui a mal été parsé, puis sauvegarde.</text></svg>
