<svg xmlns="http://www.w3.org/2000/svg" viewBox="0 0 900 340" font-family="-apple-system,'Segoe UI',sans-serif"><rect width="900" height="340" fill="#f3f3f7"/><rect x="20" y="15" width="110" height="24" rx="12" fill="#5b5fd6"/><text x="75" y="31" font-size="10" font-weight="700" fill="#fff" text-anchor="middle">ÉTAPE 2 / 4</text><text x="140" y="33" font-size="12" font-weight="600" fill="#535679">Ajouter une expérience pro</text><rect x="20" y="60" width="860" height="220" rx="10" fill="#fff" stroke="#e1e1ec"/><text x="40" y="90" font-size="11" font-weight="600" fill="#727496">ENTREPRISE *</text><rect x="40" y="98" width="380" height="34" rx="4" fill="#f3f3f7" stroke="#c2c3d6"/><text x="55" y="120" font-size="12" fill="#202037">Beta Corp</text><text x="440" y="90" font-size="11" font-weight="600" fill="#727496">POSTE *</text><rect x="440" y="98" width="380" height="34" rx="4" fill="#f3f3f7" stroke="#c2c3d6"/><text x="455" y="120" font-size="12" fill="#202037">Lead backend engineer</text><text x="40" y="155" font-size="11" font-weight="600" fill="#727496">DE</text><rect x="40" y="163" width="180" height="34" rx="4" fill="#f3f3f7" stroke="#c2c3d6"/><text x="55" y="185" font-size="12" fill="#202037">01/2024</text><text x="240" y="155" font-size="11" font-weight="600" fill="#727496">À (vide = en cours)</text><rect x="240" y="163" width="180" height="34" rx="4" fill="#dcfce7"/><text x="255" y="185" font-size="12" fill="#059669" font-weight="600">Actuel</text><text x="40" y="215" font-size="11" font-weight="600" fill="#727496">DESCRIPTION (markdown)</text><rect x="40" y="223" width="820" height="50" rx="4" fill="#f3f3f7" stroke="#c2c3d6"/><text x="55" y="248" font-size="11" fill="#202037" font-family="monospace">Migration monolithe Node → microservices AWS. Équipe de 5 devs.</text><text x="20" y="325" font-size="11" fill="#535679" font-style="italic">Descriptions courtes et factuelles. Le PDF final rend le markdown en bullets propres.</text></svg>
