<svg xmlns="http://www.w3.org/2000/svg" viewBox="0 0 900 340" font-family="-apple-system,'Segoe UI',sans-serif"><rect width="900" height="340" fill="#f3f3f7"/><rect x="20" y="15" width="110" height="24" rx="12" fill="#059669"/><text x="75" y="31" font-size="10" font-weight="700" fill="#fff" text-anchor="middle">ÉTAPE 4 / 4</text><text x="140" y="33" font-size="12" font-weight="600" fill="#535679">Résultats + détail des erreurs</text><rect x="20" y="60" width="860" height="220" rx="10" fill="#fff" stroke="#e1e1ec"/><rect x="40" y="80" width="300" height="180" rx="8" fill="#dcfce7"/><text x="60" y="105" font-size="12" font-weight="700" fill="#065f46">Alicia Bernard · Test IT</text><text x="60" y="150" font-size="52" font-weight="700" fill="#059669">78</text><text x="130" y="150" font-size="22" fill="#166534">/ 100</text><text x="60" y="180" font-size="12" font-weight="600" fill="#065f46">23/30 bonnes réponses</text><text x="60" y="205" font-size="11" fill="#166534">Durée : 38 min / 45 · Terminé le 24/07</text><text x="60" y="240" font-size="10" fill="#166534" font-style="italic">Recommandation : profil solide, à interviewer</text><rect x="360" y="80" width="500" height="180" rx="8" fill="#fff" stroke="#e1e1ec"/><text x="380" y="105" font-size="12" font-weight="700" fill="#202037">Détail des erreurs</text><rect x="380" y="120" width="460" height="30" rx="4" fill="#fef2f2"/><text x="395" y="140" font-size="10" fill="#7f1d1d">Q4 — Réseaux : bad response A</text><text x="820" y="140" font-size="10" fill="#dc2626" text-anchor="end">✗ (attendu : C)</text><rect x="380" y="155" width="460" height="30" rx="4" fill="#fef2f2"/><text x="395" y="175" font-size="10" fill="#7f1d1d">Q11 — Docker : docker rmi -f</text><text x="820" y="175" font-size="10" fill="#dc2626" text-anchor="end">✗ (attendu : docker rm)</text><rect x="380" y="190" width="460" height="30" rx="4" fill="#fef2f2"/><text x="395" y="210" font-size="10" fill="#7f1d1d">Q19 — Cloud : IAM Group</text><text x="820" y="210" font-size="10" fill="#dc2626" text-anchor="end">✗ (attendu : Role)</text><text x="380" y="240" font-size="10" fill="#a1a1b8" font-style="italic">+ 4 autres erreurs — voir la fiche complète</text><text x="20" y="325" font-size="11" fill="#535679" font-style="italic">Le détail par question permet de cibler les points à creuser en entretien.</text></svg>
