<svg xmlns="http://www.w3.org/2000/svg" viewBox="0 0 900 340" font-family="-apple-system,'Segoe UI',sans-serif">
  <rect width="900" height="340" fill="#f3f3f7"/>
  <rect x="20" y="15" width="110" height="24" rx="12" fill="#5b5fd6"/>
  <text x="75" y="31" font-size="10" font-weight="700" fill="#fff" text-anchor="middle">ÉTAPE 2 / 3</text>
  <text x="140" y="33" font-size="12" font-weight="600" fill="#535679">Ajouter les contacts avec leur rôle</text>
  <rect x="20" y="60" width="860" height="220" rx="10" fill="#fff" stroke="#e1e1ec"/>
  <text x="40" y="90" font-size="14" font-weight="700" fill="#202037">Client A SA · Section Contacts</text>
  <rect x="40" y="110" width="820" height="60" rx="8" fill="#fff" stroke="#e1e1ec"/>
  <circle cx="65" cy="140" r="16" fill="#5b5fd6"/>
  <text x="65" y="145" font-size="11" font-weight="700" fill="#fff" text-anchor="middle">BC</text>
  <text x="90" y="135" font-size="12" font-weight="600" fill="#202037">Bob Client</text>
  <text x="90" y="150" font-size="10" fill="#535679">bob@client-a.be · +32 2 123 45 67</text>
  <rect x="450" y="122" width="120" height="24" rx="12" fill="#dbeafe"/>
  <text x="510" y="139" font-size="10" font-weight="600" fill="#1e40af" text-anchor="middle">Décideur (CTO)</text>
  <rect x="40" y="180" width="820" height="60" rx="8" fill="#fff" stroke="#e1e1ec"/>
  <circle cx="65" cy="210" r="16" fill="#8b5cf6"/>
  <text x="65" y="215" font-size="11" font-weight="700" fill="#fff" text-anchor="middle">CA</text>
  <text x="90" y="205" font-size="12" font-weight="600" fill="#202037">Charlie Achats</text>
  <text x="90" y="220" font-size="10" fill="#535679">charlie@client-a.be · +32 2 123 45 68</text>
  <rect x="450" y="192" width="120" height="24" rx="12" fill="#e0e7ff"/>
  <text x="510" y="209" font-size="10" font-weight="600" fill="#4c1d95" text-anchor="middle">Achats</text>
  <rect x="580" y="192" width="120" height="24" rx="12" fill="#dcfce7"/>
  <text x="640" y="209" font-size="10" font-weight="600" fill="#166534" text-anchor="middle">Facturation</text>
  <text x="20" y="325" font-size="11" fill="#535679" font-style="italic">Le rôle est stocké sur le LIEN (ContactCompany), pas sur le contact. Utile si Bob change de rôle.</text>
</svg>
