<svg xmlns="http://www.w3.org/2000/svg" viewBox="0 0 900 350" font-family="-apple-system,'Segoe UI',sans-serif">
  <rect width="900" height="350" fill="#f3f3f7"/>
  <rect x="20" y="15" width="110" height="24" rx="12" fill="#f59e0b"/>
  <text x="75" y="31" font-size="10" font-weight="700" fill="#fff" text-anchor="middle">ÉTAPE 2 / 3</text>
  <text x="140" y="33" font-size="12" font-weight="600" fill="#535679">Cartes ORANGES — surveiller, pas urgent</text>

  <rect x="20" y="60" width="860" height="230" rx="10" fill="#fff" stroke="#e1e1ec"/>

  <rect x="40" y="90" width="380" height="90" rx="8" fill="#fffbeb" stroke="#f59e0b" stroke-width="2"/>
  <circle cx="60" cy="115" r="8" fill="#f59e0b"/>
  <text x="80" y="112" font-size="12" font-weight="700" fill="#78350f">Cellule cashflow non résolue</text>
  <text x="80" y="130" font-size="10" fill="#92400e">Milestone Beta Corp — janvier 2026</text>
  <text x="80" y="146" font-size="10" fill="#92400e">Facture émise mais pas encore marquée PAID</text>
  <text x="80" y="162" font-size="10" fill="#92400e">Statut INVOICED depuis 22 jours</text>
  <text x="80" y="176" font-size="9" fill="#b45309" font-style="italic">→ Vérifier avec le client si paiement reçu</text>

  <rect x="440" y="90" width="380" height="90" rx="8" fill="#fffbeb" stroke="#f59e0b" stroke-width="2"/>
  <circle cx="460" cy="115" r="8" fill="#f59e0b"/>
  <text x="480" y="112" font-size="12" font-weight="700" fill="#78350f">Congé en attente d'approbation</text>
  <text x="480" y="130" font-size="10" fill="#92400e">Charlie Petit — 5j en septembre</text>
  <text x="480" y="146" font-size="10" fill="#92400e">Soumis il y a 4 jours, pas encore traité</text>
  <text x="480" y="162" font-size="10" fill="#92400e">Consultant attend une réponse</text>
  <text x="480" y="176" font-size="9" fill="#b45309" font-style="italic">→ Approuver ou refuser aujourd'hui</text>

  <rect x="40" y="200" width="380" height="70" rx="8" fill="#fffbeb" stroke="#f59e0b" stroke-width="2"/>
  <circle cx="60" cy="225" r="8" fill="#f59e0b"/>
  <text x="80" y="222" font-size="12" font-weight="700" fill="#78350f">Offre sans activité depuis 14 jours</text>
  <text x="80" y="240" font-size="10" fill="#92400e">Devis Gamma Ltd — 32 K€ · Envoyée le 15/07</text>
  <text x="80" y="257" font-size="9" fill="#b45309" font-style="italic">→ Relance mail au décideur</text>

  <text x="20" y="325" font-size="11" fill="#535679" font-style="italic">Orange = à traiter dans la semaine. Pas critique aujourd'hui mais ne pas laisser pourrir.</text>
</svg>
