<svg xmlns="http://www.w3.org/2000/svg" viewBox="0 0 900 350" font-family="-apple-system,'Segoe UI',sans-serif">
  <rect width="900" height="350" fill="#f3f3f7"/>
  <rect x="20" y="15" width="110" height="24" rx="12" fill="#3b82f6"/>
  <text x="75" y="31" font-size="10" font-weight="700" fill="#fff" text-anchor="middle">ÉTAPE 3 / 3</text>
  <text x="140" y="33" font-size="12" font-weight="600" fill="#535679">Cartes BLEUES — informatif, à trier</text>

  <rect x="20" y="60" width="860" height="230" rx="10" fill="#fff" stroke="#e1e1ec"/>

  <rect x="40" y="90" width="380" height="80" rx="8" fill="#eff6ff" stroke="#93c5fd" stroke-width="2"/>
  <circle cx="60" cy="115" r="8" fill="#3b82f6"/>
  <text x="80" y="112" font-size="12" font-weight="700" fill="#1e3a8a">2 nouveaux candidats à trier</text>
  <text x="80" y="130" font-size="10" fill="#1e40af">Vivier /candidates — importés depuis LinkedIn</text>
  <text x="80" y="146" font-size="10" fill="#1e40af">Diane N. (data eng) · Eve R. (product mgr)</text>
  <text x="80" y="163" font-size="9" fill="#1d4ed8" font-style="italic">→ Qualifier ou archiver</text>

  <rect x="440" y="90" width="380" height="80" rx="8" fill="#eff6ff" stroke="#93c5fd" stroke-width="2"/>
  <circle cx="460" cy="115" r="8" fill="#3b82f6"/>
  <text x="480" y="112" font-size="12" font-weight="700" fill="#1e3a8a">1 nouvelle demande de mission</text>
  <text x="480" y="130" font-size="10" fill="#1e40af">Client A — Backend TypeScript senior</text>
  <text x="480" y="146" font-size="10" fill="#1e40af">TJM cible 650€ · Démarrage septembre</text>
  <text x="480" y="163" font-size="9" fill="#1d4ed8" font-style="italic">→ Ouvrir la fiche /mission-requests</text>

  <rect x="40" y="185" width="780" height="70" rx="8" fill="#eff6ff" stroke="#93c5fd" stroke-width="2"/>
  <circle cx="60" cy="210" r="8" fill="#3b82f6"/>
  <text x="80" y="207" font-size="12" font-weight="700" fill="#1e3a8a">Prospection : 5 relances programmées aujourd'hui</text>
  <text x="80" y="225" font-size="10" fill="#1e40af">Bob C. (Client A), Frank E. (Epsilon Inc), Grace Z. (Zeta Group)... +2</text>
  <text x="80" y="245" font-size="9" fill="#1d4ed8" font-style="italic">→ Ouvrir /prospection?filter=followup</text>

  <text x="20" y="325" font-size="11" fill="#535679" font-style="italic">Bleu = pas urgent mais bon à traiter. Un tri quotidien en 5 min = rien ne s'accumule.</text>
</svg>
