<svg xmlns="http://www.w3.org/2000/svg" viewBox="0 0 900 340" font-family="-apple-system,'Segoe UI',sans-serif">
  <rect width="900" height="340" fill="#f3f3f7"/>
  <rect x="20" y="15" width="110" height="24" rx="12" fill="#5b5fd6"/>
  <text x="75" y="31" font-size="10" font-weight="700" fill="#fff" text-anchor="middle">ÉTAPE 1 / 3</text>
  <text x="140" y="33" font-size="12" font-weight="600" fill="#535679">Vue manager /expenses?filter=to-approve</text>

  <rect x="20" y="60" width="860" height="220" rx="10" fill="#fff" stroke="#e1e1ec"/>
  <text x="40" y="88" font-size="14" font-weight="700" fill="#202037">Notes à approuver</text>
  <text x="40" y="105" font-size="11" fill="#535679">Filtre : SUBMITTED · Tri par date de soumission</text>

  <rect x="40" y="130" width="820" height="60" rx="8" fill="#fff" stroke="#f59e0b" stroke-width="2"/>
  <rect x="40" y="130" width="4" height="60" fill="#f59e0b"/>
  <text x="60" y="150" font-size="12" font-weight="600" fill="#202037">Alice Martin — 78,50 € · Repas d'affaires</text>
  <text x="60" y="167" font-size="10" fill="#535679">15/07 · Client A · 3 participants · Justif ✓</text>
  <text x="60" y="182" font-size="10" fill="#a1a1b8">Soumis il y a 2h</text>
  <rect x="720" y="145" width="30" height="26" rx="4" fill="#dcfce7"/>
  <text x="735" y="163" font-size="13" fill="#166534" text-anchor="middle">✓</text>
  <rect x="755" y="145" width="30" height="26" rx="4" fill="#fee2e2"/>
  <text x="770" y="163" font-size="13" fill="#991b1b" text-anchor="middle">✗</text>
  <rect x="790" y="145" width="60" height="26" rx="4" fill="#eef2ff"/>
  <text x="820" y="163" font-size="11" fill="#5b5fd6" text-anchor="middle">Voir PDF</text>

  <rect x="40" y="200" width="820" height="60" rx="8" fill="#fff" stroke="#f59e0b" stroke-width="2"/>
  <rect x="40" y="200" width="4" height="60" fill="#f59e0b"/>
  <text x="60" y="220" font-size="12" font-weight="600" fill="#202037">Bob Durant — 152,00 € · Déplacement train</text>
  <text x="60" y="237" font-size="10" fill="#535679">14/07 · Bruxelles-Paris · Justif ✓</text>
  <text x="60" y="252" font-size="10" fill="#a1a1b8">Soumis il y a 1 jour</text>
  <rect x="720" y="215" width="30" height="26" rx="4" fill="#dcfce7"/>
  <text x="735" y="233" font-size="13" fill="#166534" text-anchor="middle">✓</text>
  <rect x="755" y="215" width="30" height="26" rx="4" fill="#fee2e2"/>
  <text x="770" y="233" font-size="13" fill="#991b1b" text-anchor="middle">✗</text>

  <text x="20" y="315" font-size="11" fill="#535679" font-style="italic">Les notes SUBMITTED apparaissent avec bordure orange. Tri chronologique — traite les plus vieilles d'abord.</text>
</svg>
