<svg xmlns="http://www.w3.org/2000/svg" viewBox="0 0 900 340" font-family="-apple-system,'Segoe UI',sans-serif">
<rect width="900" height="340" fill="#f3f3f7"/>
<rect x="20" y="15" width="110" height="24" rx="12" fill="#5b5fd6"/>
<text x="75" y="31" font-size="10" font-weight="700" fill="#fff" text-anchor="middle">ÉTAPE 1 / 3</text>
<text x="140" y="33" font-size="12" font-weight="600" fill="#535679">/finance — vue synthèse trimestre</text>
<rect x="20" y="60" width="860" height="220" rx="10" fill="#fff" stroke="#e1e1ec"/>

<text x="40" y="90" font-size="14" font-weight="700" fill="#202037">Q3 2026 · Juillet — Septembre</text>
<rect x="40" y="115" width="240" height="90" rx="8" fill="#dcfce7"/>
<text x="55" y="140" font-size="11" font-weight="700" fill="#065f46">TVA COLLECTÉE</text>
<text x="55" y="175" font-size="24" font-weight="700" fill="#059669">28 450 €</text>
<text x="55" y="195" font-size="10" fill="#166534">12 factures émises</text>
<rect x="300" y="115" width="240" height="90" rx="8" fill="#fef2f2"/>
<text x="315" y="140" font-size="11" font-weight="700" fill="#7f1d1d">TVA DÉDUCTIBLE</text>
<text x="315" y="175" font-size="24" font-weight="700" fill="#dc2626">8 120 €</text>
<text x="315" y="195" font-size="10" fill="#991b1b">Notes de frais + fournisseurs</text>
<rect x="560" y="115" width="280" height="90" rx="8" fill="#5b5fd6"/>
<text x="580" y="140" font-size="11" font-weight="700" fill="#c7d2fe">À PAYER À L'ÉTAT</text>
<text x="580" y="175" font-size="24" font-weight="700" fill="#fff">20 330 €</text>
<text x="580" y="195" font-size="10" fill="#c7d2fe">Déclaration due le 20/10/2026</text>
<rect x="40" y="220" width="820" height="50" rx="8" fill="#fef3c7"/>
<text x="55" y="245" font-size="12" font-weight="700" fill="#78350f">Rappel : préparer virement 20 330 € pour le 20 octobre</text>

<text x="20" y="325" font-size="11" fill="#535679" font-style="italic">Trimestre = 3 mois. Déclaration due le 20 du mois suivant.</text>
</svg>