<svg xmlns="http://www.w3.org/2000/svg" viewBox="0 0 1200 480" font-family="-apple-system,'Segoe UI',sans-serif">
  <rect width="1200" height="480" fill="#f3f3f7"/>
  <text x="30" y="40" font-size="22" font-weight="700" fill="#202037">Congés</text>
  <text x="30" y="60" font-size="12" fill="#535679">Consulter et approuver les demandes de l'équipe</text>

  <!-- Tabs -->
  <rect x="30" y="85" width="130" height="34" rx="6" fill="#fef3c7"/>
  <text x="95" y="107" font-size="12" font-weight="600" fill="#78350f" text-anchor="middle">À approuver (3)</text>
  <text x="180" y="107" font-size="12" fill="#535679">En cours (2)</text>
  <text x="270" y="107" font-size="12" fill="#535679">Historique (18)</text>
  <text x="370" y="107" font-size="12" fill="#535679">Soldes</text>

  <!-- Tableau -->
  <rect x="30" y="140" width="1140" height="290" rx="10" fill="#fff" stroke="#e1e1ec"/>
  <rect x="30" y="140" width="1140" height="40" fill="#f3f3f7"/>

  <text x="60" y="164" font-size="11" font-weight="600" fill="#727496">CONSULTANT</text>
  <text x="280" y="164" font-size="11" font-weight="600" fill="#727496">TYPE</text>
  <text x="380" y="164" font-size="11" font-weight="600" fill="#727496">DÉBUT</text>
  <text x="480" y="164" font-size="11" font-weight="600" fill="#727496">FIN</text>
  <text x="600" y="164" font-size="11" font-weight="600" fill="#727496" text-anchor="end">JOURS</text>
  <text x="650" y="164" font-size="11" font-weight="600" fill="#727496">RATTACHEMENT</text>
  <text x="880" y="164" font-size="11" font-weight="600" fill="#727496">STATUT</text>
  <text x="1120" y="164" font-size="11" font-weight="600" fill="#727496" text-anchor="end">ACTIONS</text>

  <!-- Ligne 1 : Alice -->
  <line x1="30" y1="180" x2="1170" y2="180" stroke="#e1e1ec"/>
  <text x="60" y="210" font-size="13" font-weight="600" fill="#202037">Alice Martin</text>
  <text x="60" y="226" font-size="10" fill="#a1a1b8">alice@dasolabs.com</text>
  <text x="280" y="215" font-size="11" fill="#535679">Légaux</text>
  <text x="380" y="215" font-size="11" fill="#202037">10/08/2026</text>
  <text x="480" y="215" font-size="11" fill="#202037">21/08/2026</text>
  <text x="600" y="215" font-size="12" font-weight="600" fill="#202037" text-anchor="end">10j</text>
  <text x="650" y="210" font-size="11" fill="#202037">MISSION-2026-08</text>
  <text x="650" y="225" font-size="10" fill="#a1a1b8">Client A</text>
  <text x="650" y="240" font-size="9" fill="#059669">✓ client OK</text>
  <rect x="880" y="200" width="90" height="22" rx="3" fill="#fef3c7"/>
  <text x="925" y="215" font-size="10" font-weight="600" fill="#92400e" text-anchor="middle">En attente</text>
  <g>
    <rect x="1030" y="200" width="30" height="22" rx="3" fill="#dcfce7"/>
    <text x="1045" y="215" font-size="13" fill="#166534" text-anchor="middle">✓</text>
    <rect x="1065" y="200" width="30" height="22" rx="3" fill="#fee2e2"/>
    <text x="1080" y="215" font-size="13" fill="#991b1b" text-anchor="middle">✗</text>
    <rect x="1100" y="200" width="30" height="22" rx="3" fill="#fef2f2"/>
    <text x="1115" y="215" font-size="13" fill="#dc2626" text-anchor="middle">🗑</text>
  </g>

  <!-- Ligne 2 : Bob -->
  <line x1="30" y1="255" x2="1170" y2="255" stroke="#e1e1ec"/>
  <text x="60" y="285" font-size="13" font-weight="600" fill="#202037">Bob Durant</text>
  <text x="60" y="301" font-size="10" fill="#a1a1b8">bob@dasolabs.com</text>
  <text x="280" y="290" font-size="11" fill="#535679">RTT</text>
  <text x="380" y="290" font-size="11" fill="#202037">05/09/2026</text>
  <text x="480" y="290" font-size="11" fill="#202037">05/09/2026</text>
  <text x="600" y="290" font-size="12" font-weight="600" fill="#202037" text-anchor="end">1j</text>
  <text x="650" y="290" font-size="11" fill="#a1a1b8">—</text>
  <rect x="880" y="275" width="90" height="22" rx="3" fill="#fef3c7"/>
  <text x="925" y="290" font-size="10" font-weight="600" fill="#92400e" text-anchor="middle">En attente</text>
  <g>
    <rect x="1030" y="275" width="30" height="22" rx="3" fill="#dcfce7"/>
    <text x="1045" y="290" font-size="13" fill="#166534" text-anchor="middle">✓</text>
    <rect x="1065" y="275" width="30" height="22" rx="3" fill="#fee2e2"/>
    <text x="1080" y="290" font-size="13" fill="#991b1b" text-anchor="middle">✗</text>
    <rect x="1100" y="275" width="30" height="22" rx="3" fill="#fef2f2"/>
    <text x="1115" y="290" font-size="13" fill="#dc2626" text-anchor="middle">🗑</text>
  </g>

  <!-- Ligne 3 : Charlie -->
  <line x1="30" y1="330" x2="1170" y2="330" stroke="#e1e1ec"/>
  <text x="60" y="360" font-size="13" font-weight="600" fill="#202037">Charlie Petit</text>
  <text x="60" y="376" font-size="10" fill="#a1a1b8">charlie@dasolabs.com</text>
  <text x="280" y="365" font-size="11" fill="#535679">Année précédente</text>
  <text x="380" y="365" font-size="11" fill="#202037">15/12/2026</text>
  <text x="480" y="365" font-size="11" fill="#202037">31/12/2026</text>
  <text x="600" y="365" font-size="12" font-weight="600" fill="#202037" text-anchor="end">10j</text>
  <text x="650" y="365" font-size="11" fill="#a1a1b8">—</text>
  <rect x="880" y="350" width="90" height="22" rx="3" fill="#fef3c7"/>
  <text x="925" y="365" font-size="10" font-weight="600" fill="#92400e" text-anchor="middle">En attente</text>
  <g>
    <rect x="1030" y="350" width="30" height="22" rx="3" fill="#dcfce7"/>
    <text x="1045" y="365" font-size="13" fill="#166534" text-anchor="middle">✓</text>
    <rect x="1065" y="350" width="30" height="22" rx="3" fill="#fee2e2"/>
    <text x="1080" y="365" font-size="13" fill="#991b1b" text-anchor="middle">✗</text>
    <rect x="1100" y="350" width="30" height="22" rx="3" fill="#fef2f2"/>
    <text x="1115" y="365" font-size="13" fill="#dc2626" text-anchor="middle">🗑</text>
  </g>
</svg>
