<svg xmlns="http://www.w3.org/2000/svg" viewBox="0 0 900 340" font-family="-apple-system,'Segoe UI',sans-serif"><rect width="900" height="340" fill="#f3f3f7"/><rect x="20" y="15" width="110" height="24" rx="12" fill="#5b5fd6"/><text x="75" y="31" font-size="10" font-weight="700" fill="#fff" text-anchor="middle">ÉTAPE 1 / 3</text><text x="140" y="33" font-size="12" font-weight="600" fill="#535679">Onglet Soldes (accessible aux managers RH)</text><rect x="20" y="60" width="860" height="220" rx="10" fill="#fff" stroke="#e1e1ec"/><rect x="40" y="80" width="120" height="30" rx="4" fill="#f3f3f7"/><text x="100" y="100" font-size="11" fill="#535679" text-anchor="middle">À approuver</text><rect x="170" y="80" width="100" height="30" rx="4" fill="#f3f3f7"/><text x="220" y="100" font-size="11" fill="#535679" text-anchor="middle">En cours</text><rect x="280" y="80" width="100" height="30" rx="4" fill="#f3f3f7"/><text x="330" y="100" font-size="11" fill="#535679" text-anchor="middle">Historique</text><rect x="390" y="80" width="100" height="30" rx="4" fill="#eef2ff"/><text x="440" y="100" font-size="11" font-weight="700" fill="#5b5fd6" text-anchor="middle">Soldes</text><rect x="40" y="130" width="820" height="34" fill="#f3f3f7"/><text x="60" y="152" font-size="10" font-weight="700" fill="#727496">CONSULTANT</text><text x="360" y="152" font-size="10" font-weight="700" fill="#727496" text-anchor="end">LÉGAUX</text><text x="460" y="152" font-size="10" font-weight="700" fill="#727496" text-anchor="end">RTT</text><text x="590" y="152" font-size="10" font-weight="700" fill="#727496" text-anchor="end">REPORT N-1</text><text x="700" y="152" font-size="10" font-weight="700" fill="#727496" text-anchor="end">TOTAL</text><line x1="40" y1="167" x2="860" y2="167" stroke="#e1e1ec"/><text x="60" y="192" font-size="12" font-weight="600" fill="#202037">Alice Martin</text><text x="360" y="192" font-size="12" fill="#202037" text-anchor="end">5,5 j</text><text x="460" y="192" font-size="12" fill="#202037" text-anchor="end">10 j</text><text x="590" y="192" font-size="12" fill="#202037" text-anchor="end">3 j</text><text x="700" y="192" font-size="12" font-weight="700" fill="#059669" text-anchor="end">18,5 j</text><rect x="740" y="180" width="110" height="26" rx="4" fill="#5b5fd6"/><text x="795" y="197" font-size="10" font-weight="700" fill="#fff" text-anchor="middle">Ajouter 2027</text><line x1="40" y1="215" x2="860" y2="215" stroke="#e1e1ec"/><text x="60" y="240" font-size="12" font-weight="600" fill="#202037">Bob Durant</text><text x="360" y="240" font-size="12" fill="#202037" text-anchor="end">14 j</text><text x="460" y="240" font-size="12" fill="#202037" text-anchor="end">8 j</text><text x="590" y="240" font-size="12" fill="#a1a1b8" text-anchor="end">—</text><text x="700" y="240" font-size="12" font-weight="700" fill="#059669" text-anchor="end">22 j</text><rect x="740" y="228" width="110" height="26" rx="4" fill="#5b5fd6"/><text x="795" y="245" font-size="10" font-weight="700" fill="#fff" text-anchor="middle">Ajouter 2027</text><text x="20" y="325" font-size="11" fill="#535679" font-style="italic">Vue par consultant. Reliquat = Légaux + RTT non pris + report existant.</text></svg>
