<svg xmlns="http://www.w3.org/2000/svg" viewBox="0 0 900 340" font-family="-apple-system,'Segoe UI',sans-serif">
  <rect width="900" height="340" fill="#f3f3f7"/>
  <rect x="20" y="15" width="110" height="24" rx="12" fill="#5b5fd6"/>
  <text x="75" y="31" font-size="10" font-weight="700" fill="#fff" text-anchor="middle">ÉTAPE 4 / 5</text>
  <text x="140" y="33" font-size="12" font-weight="600" fill="#535679">Aperçu PDF + envoi au client</text>

  <rect x="20" y="60" width="860" height="220" rx="10" fill="#fff" stroke="#e1e1ec"/>

  <rect x="40" y="90" width="380" height="170" rx="8" fill="#f9fafb" stroke="#e1e1ec"/>
  <text x="230" y="120" font-size="12" font-weight="700" fill="#5b5fd6" text-anchor="middle">📄 Aperçu PDF (nouvel onglet)</text>
  <rect x="80" y="140" width="300" height="100" rx="4" fill="#fff" stroke="#c2c3d6"/>
  <text x="90" y="160" font-size="9" fill="#5b5fd6" font-weight="700">DASOLABS</text>
  <text x="90" y="177" font-size="12" font-weight="700" fill="#202037">Alice Martin</text>
  <text x="90" y="192" font-size="9" fill="#535679">Backend senior · 6 ans XP</text>
  <line x1="90" y1="200" x2="370" y2="200" stroke="#e1e1ec"/>
  <text x="90" y="215" font-size="8" fill="#535679">Skills : Node.js, TypeScript, PostgreSQL...</text>
  <text x="90" y="228" font-size="8" fill="#535679">2024-26 · Beta Corp · Lead backend</text>

  <rect x="450" y="90" width="410" height="170" rx="8" fill="#eef2ff"/>
  <text x="470" y="115" font-size="12" font-weight="700" fill="#5b5fd6">Actions rapides</text>
  <rect x="470" y="130" width="180" height="36" rx="6" fill="#fff" stroke="#c2c3d6"/>
  <text x="560" y="153" font-size="11" fill="#535679" text-anchor="middle">👁 Aperçu PDF</text>
  <rect x="470" y="175" width="180" height="36" rx="6" fill="#5b5fd6"/>
  <text x="560" y="198" font-size="11" font-weight="700" fill="#fff" text-anchor="middle">📤 Présenté au client</text>
  <text x="470" y="235" font-size="10" fill="#535679">Le PDF part par mail à Bob Client + Charlie Achats.</text>
  <text x="470" y="252" font-size="10" fill="#535679">Statut : SUBMITTED → PRESENTED. Trace horodatée.</text>

  <text x="20" y="320" font-size="11" fill="#535679" font-style="italic">Toujours vérifier l'aperçu avant d'envoyer — la mise en page charte Dasolabs est importante.</text>
</svg>
