<svg xmlns="http://www.w3.org/2000/svg" viewBox="0 0 900 400" font-family="-apple-system,'Segoe UI',sans-serif">
  <rect width="900" height="400" fill="#f3f3f7"/>
  <rect x="20" y="15" width="110" height="24" rx="12" fill="#5b5fd6"/>
  <text x="75" y="31" font-size="10" font-weight="700" fill="#fff" text-anchor="middle">ÉTAPE 2 / 4</text>
  <text x="140" y="33" font-size="12" font-weight="600" fill="#535679">Wizard /offers/[id]/win — configurer les tranches</text>
  <rect x="20" y="60" width="860" height="310" rx="10" fill="#fff" stroke="#e1e1ec"/>
  <text x="40" y="90" font-size="14" font-weight="700" fill="#202037">Découper le montant en tranches de facturation</text>
  <text x="40" y="108" font-size="11" fill="#535679">Total offre : 45 000 € HT · Pré-remplissage jalons standard modifiable</text>
  <rect x="40" y="130" width="820" height="60" rx="8" fill="#f3f3f7"/>
  <text x="55" y="152" font-size="11" font-weight="600" fill="#202037">Tranche 1 — Signature</text>
  <text x="280" y="152" font-size="11" fill="#535679">30%</text>
  <text x="360" y="152" font-size="12" font-weight="600" fill="#202037">13 500,00 €</text>
  <text x="500" y="152" font-size="11" fill="#535679">Date : 31/07/2026</text>
  <text x="700" y="152" font-size="11" fill="#059669">Encaissement prévu : 31/08/2026</text>
  <text x="55" y="176" font-size="10" fill="#a1a1b8">Facturation immédiate au démarrage projet</text>
  <rect x="40" y="200" width="820" height="60" rx="8" fill="#f3f3f7"/>
  <text x="55" y="222" font-size="11" font-weight="600" fill="#202037">Tranche 2 — Mi-projet</text>
  <text x="280" y="222" font-size="11" fill="#535679">40%</text>
  <text x="360" y="222" font-size="12" font-weight="600" fill="#202037">18 000,00 €</text>
  <text x="500" y="222" font-size="11" fill="#535679">Date : 30/09/2026</text>
  <text x="700" y="222" font-size="11" fill="#059669">Encaissement : 31/10/2026</text>
  <rect x="40" y="270" width="820" height="60" rx="8" fill="#f3f3f7"/>
  <text x="55" y="292" font-size="11" font-weight="600" fill="#202037">Tranche 3 — Livraison</text>
  <text x="280" y="292" font-size="11" fill="#535679">30%</text>
  <text x="360" y="292" font-size="12" font-weight="600" fill="#202037">13 500,00 €</text>
  <text x="500" y="292" font-size="11" fill="#535679">Date : 30/11/2026</text>
  <text x="700" y="292" font-size="11" fill="#059669">Encaissement : 31/12/2026</text>
  <rect x="620" y="340" width="230" height="30" rx="6" fill="#5b5fd6"/>
  <text x="735" y="360" font-size="12" font-weight="700" fill="#fff" text-anchor="middle">Valider et créer projet</text>
</svg>
