<svg xmlns="http://www.w3.org/2000/svg" viewBox="0 0 900 340" font-family="-apple-system,'Segoe UI',sans-serif">
<rect width="900" height="340" fill="#f3f3f7"/>
<rect x="20" y="15" width="110" height="24" rx="12" fill="#5b5fd6"/>
<text x="75" y="31" font-size="10" font-weight="700" fill="#fff" text-anchor="middle">ÉTAPE 2 / 3</text>
<text x="140" y="33" font-size="12" font-weight="600" fill="#535679">Instance auto à la création du user</text>
<rect x="20" y="60" width="860" height="220" rx="10" fill="#fff" stroke="#e1e1ec"/>

<rect x="720" y="20" width="160" height="46" rx="8" fill="#dcfce7"/>
<text x="800" y="42" font-size="11" font-weight="700" fill="#065f46" text-anchor="middle">Onboarding créé</text>
<text x="800" y="58" font-size="10" fill="#166534" text-anchor="middle">Diane N. · 12 items</text>
<text x="40" y="90" font-size="14" font-weight="700" fill="#202037">Onboarding Diane Nouveau</text>
<rect x="40" y="115" width="820" height="30" rx="4" fill="#eef2ff"/>
<text x="55" y="135" font-size="12" font-weight="600" fill="#5b5fd6">Progression : 3 / 12 items (25%)</text>
<rect x="40" y="155" width="820" height="30" fill="#dcfce7"/>
<text x="55" y="175" font-size="11" fill="#065f46">✓ Setup Mac + Google Workspace — Fait le 22/07 par RH</text>
<rect x="40" y="190" width="820" height="30" fill="#dcfce7"/>
<text x="55" y="210" font-size="11" fill="#065f46">✓ Badge d'accès bureau — Fait le 22/07 par Facility</text>
<rect x="40" y="225" width="820" height="30" fill="#dcfce7"/>
<text x="55" y="245" font-size="11" fill="#065f46">✓ Signature contrat — Fait le 23/07 par RH</text>
<rect x="40" y="260" width="820" height="20" fill="#fef3c7"/>
<text x="55" y="274" font-size="10" fill="#78350f">⏳ En attente : 9 items dont Formation ERP (owner: PMO)</text>

<text x="20" y="325" font-size="11" fill="#535679" font-style="italic">Le manager voit ce qui reste à faire, ping les owners si stagnation.</text>
</svg>