<svg xmlns="http://www.w3.org/2000/svg" viewBox="0 0 900 380" font-family="-apple-system,'Segoe UI',sans-serif"><rect width="900" height="380" fill="rgba(0,0,0,0.5)"/><rect x="150" y="30" width="600" height="330" rx="12" fill="#fff"/><rect x="20" y="10" width="110" height="24" rx="12" fill="#5b5fd6"/><text x="75" y="26" font-size="10" font-weight="700" fill="#fff" text-anchor="middle">ÉTAPE 2 / 4</text><text x="180" y="70" font-size="16" font-weight="700" fill="#202037">Nouvelle affectation</text><text x="180" y="90" font-size="11" fill="#535679">Alice Martin · 10/08 → 15/08 (6 jours)</text><text x="180" y="125" font-size="10" font-weight="600" fill="#727496">TYPE</text><rect x="180" y="135" width="260" height="36" rx="4" fill="#eef2ff" stroke="#5b5fd6" stroke-width="2"/><text x="195" y="158" font-size="12" font-weight="700" fill="#5b5fd6">▶ Projet client</text><rect x="460" y="135" width="260" height="36" rx="4" fill="#f3f3f7" stroke="#c2c3d6"/><text x="475" y="158" font-size="12" fill="#535679">Centre de coût (interne)</text><text x="180" y="200" font-size="10" font-weight="600" fill="#727496">PROJET *</text><rect x="180" y="210" width="540" height="36" rx="4" fill="#f3f3f7" stroke="#c2c3d6"/><text x="195" y="233" font-size="12" fill="#202037">PROJ-2026-15 · Client A — Refonte ERP</text><text x="180" y="275" font-size="10" font-weight="600" fill="#727496">CHARGE %</text><rect x="180" y="285" width="100" height="36" rx="4" fill="#f3f3f7" stroke="#c2c3d6"/><text x="230" y="308" font-size="14" font-weight="600" fill="#202037" text-anchor="middle">100 %</text><text x="290" y="308" font-size="11" fill="#535679">Heures/j : 7,6h (auto = capa/5)</text><rect x="580" y="325" width="140" height="30" rx="6" fill="#5b5fd6"/><text x="650" y="345" font-size="12" font-weight="700" fill="#fff" text-anchor="middle">Créer</text><text x="180" y="370" font-size="10" fill="#fff" font-style="italic">Projet ou centre de coût. Charge % + h/j calculés depuis capacité hebdo.</text></svg>
