<svg xmlns="http://www.w3.org/2000/svg" viewBox="0 0 900 340" font-family="-apple-system,'Segoe UI',sans-serif"><rect width="900" height="340" fill="#f3f3f7"/><rect x="20" y="15" width="110" height="24" rx="12" fill="#5b5fd6"/><text x="75" y="31" font-size="10" font-weight="700" fill="#fff" text-anchor="middle">ÉTAPE 1 / 4</text><text x="140" y="33" font-size="12" font-weight="600" fill="#535679">Drag-select sur une ligne consultant</text><rect x="20" y="60" width="860" height="220" rx="10" fill="#fff" stroke="#e1e1ec"/><rect x="20" y="60" width="180" height="220" fill="#f3f3f7"/><text x="35" y="90" font-size="12" font-weight="700" fill="#202037">Consultant</text><text x="35" y="118" font-size="11" fill="#202037">Alice M.</text><text x="35" y="148" font-size="11" fill="#202037">Bob D.</text><text x="35" y="178" font-size="11" fill="#202037">Charlie P.</text><g font-size="9" fill="#727496" text-anchor="middle"><text x="230" y="80">L</text><text x="260" y="80">M</text><text x="290" y="80">M</text><text x="320" y="80">J</text><text x="350" y="80">V</text><text x="380" y="80">S</text><text x="410" y="80">D</text><text x="440" y="80">L</text><text x="470" y="80">M</text><text x="500" y="80">M</text><text x="530" y="80">J</text><text x="560" y="80">V</text></g><rect x="215" y="105" width="180" height="24" fill="#dbeafe" stroke="#5b5fd6" stroke-width="2"/><path d="M 215 105 L 395 105 L 395 129 L 215 129 Z" fill="#5b5fd6" opacity="0.2"/><text x="305" y="122" font-size="10" font-weight="700" fill="#5b5fd6" text-anchor="middle">← Drag pour sélectionner ces 6 jours →</text><rect x="215" y="135" width="140" height="20" fill="#f3f3f7" stroke="#e1e1ec"/><rect x="365" y="135" width="30" height="20" fill="#e1e1ec"/><rect x="215" y="165" width="140" height="20" fill="#f3f3f7" stroke="#e1e1ec"/><text x="20" y="325" font-size="11" fill="#535679" font-style="italic">Clic-drag horizontal sur les jours à couvrir. Weekend en gris foncé, non sélectionnable.</text></svg>
