<svg xmlns="http://www.w3.org/2000/svg" viewBox="0 0 900 340" font-family="-apple-system,'Segoe UI',sans-serif">
<rect width="900" height="340" fill="#f3f3f7"/>
<rect x="20" y="15" width="110" height="24" rx="12" fill="#5b5fd6"/>
<text x="75" y="31" font-size="10" font-weight="700" fill="#fff" text-anchor="middle">ÉTAPE 1 / 3</text>
<text x="140" y="33" font-size="12" font-weight="600" fill="#535679">/prospection — dashboard interactions</text>
<rect x="20" y="60" width="860" height="220" rx="10" fill="#fff" stroke="#e1e1ec"/>

<text x="40" y="90" font-size="14" font-weight="700" fill="#202037">Prospection · 47 interactions ce mois</text>
<rect x="40" y="115" width="240" height="80" rx="8" fill="#eef2ff"/>
<text x="55" y="140" font-size="10" font-weight="700" fill="#5b5fd6">ENVOYÉS</text>
<text x="55" y="170" font-size="26" font-weight="700" fill="#5b5fd6">32</text>
<text x="55" y="188" font-size="10" fill="#535679">LinkedIn + email</text>
<rect x="300" y="115" width="240" height="80" rx="8" fill="#dcfce7"/>
<text x="315" y="140" font-size="10" font-weight="700" fill="#065f46">RÉPONSES</text>
<text x="315" y="170" font-size="26" font-weight="700" fill="#059669">8</text>
<text x="315" y="188" font-size="10" fill="#166534">Taux 25% (bon)</text>
<rect x="560" y="115" width="280" height="80" rx="8" fill="#fef3c7"/>
<text x="580" y="140" font-size="10" font-weight="700" fill="#78350f">RELANCES DU JOUR</text>
<text x="580" y="170" font-size="26" font-weight="700" fill="#f59e0b">5</text>
<text x="580" y="188" font-size="10" fill="#92400e">À faire aujourd'hui</text>
<rect x="40" y="215" width="820" height="50" rx="8" fill="#fef3c7"/>
<text x="55" y="240" font-size="12" font-weight="700" fill="#78350f">⚠ Rituel matinal : boucler les 5 relances du jour</text>
<text x="55" y="258" font-size="10" fill="#92400e">15 min max. Ordre : plus vieux d'abord.</text>

<text x="20" y="325" font-size="11" fill="#535679" font-style="italic">Volumétrie et taux de réponse en un coup d'œil. Focus sur les relances.</text>
</svg>