<svg xmlns="http://www.w3.org/2000/svg" viewBox="0 0 900 340" font-family="-apple-system,'Segoe UI',sans-serif">
<rect width="900" height="340" fill="#f3f3f7"/>
<rect x="20" y="15" width="110" height="24" rx="12" fill="#5b5fd6"/>
<text x="75" y="31" font-size="10" font-weight="700" fill="#fff" text-anchor="middle">ÉTAPE 1 / 3</text>
<text x="140" y="33" font-size="12" font-weight="600" fill="#535679">Planifier un entretien annuel</text>
<rect x="20" y="60" width="860" height="220" rx="10" fill="#fff" stroke="#e1e1ec"/>

<text x="40" y="90" font-size="14" font-weight="700" fill="#202037">Nouvel entretien — Alice Martin</text>
<text x="40" y="120" font-size="11" font-weight="600" fill="#727496">DATE</text>
<rect x="40" y="128" width="200" height="34" rx="4" fill="#f3f3f7"/>
<text x="55" y="150" font-size="12" fill="#202037">28/07/2026 · 14h00</text>
<text x="260" y="120" font-size="11" font-weight="600" fill="#727496">TYPE</text>
<rect x="260" y="128" width="200" height="34" rx="4" fill="#eef2ff"/>
<text x="360" y="150" font-size="12" font-weight="600" fill="#5b5fd6" text-anchor="middle">Annuel</text>
<text x="480" y="120" font-size="11" font-weight="600" fill="#727496">MENÉ PAR</text>
<rect x="480" y="128" width="200" height="34" rx="4" fill="#f3f3f7"/>
<text x="580" y="150" font-size="12" fill="#202037" text-anchor="middle">Sophie L. (Manager)</text>
<rect x="40" y="185" width="820" height="80" rx="8" fill="#f3f3f7"/>
<text x="55" y="210" font-size="12" font-weight="700" fill="#5b5fd6">Types d'entretien</text>
<text x="55" y="230" font-size="11" fill="#535679">• Annuel : bilan année + objectifs N+1 · Traditionnel</text>
<text x="55" y="248" font-size="11" fill="#535679">• Semi-annuel : point mi-année · Léger</text>
<text x="55" y="266" font-size="11" fill="#535679">• Projet : à la fin d'une mission longue · Retour d'expérience</text>

<text x="20" y="325" font-size="11" fill="#535679" font-style="italic">Prévoir l'entretien à J+30 min : 45 min réel + 15 min préparation Alice.</text>
</svg>