<svg xmlns="http://www.w3.org/2000/svg" viewBox="0 0 900 340" font-family="-apple-system,'Segoe UI',sans-serif">
<rect width="900" height="340" fill="#f3f3f7"/>
<rect x="20" y="15" width="110" height="24" rx="12" fill="#5b5fd6"/>
<text x="75" y="31" font-size="10" font-weight="700" fill="#fff" text-anchor="middle">ÉTAPE 1 / 3</text>
<text x="140" y="33" font-size="12" font-weight="600" fill="#535679">/simulator/package — construire une offre RH</text>
<rect x="20" y="60" width="860" height="220" rx="10" fill="#fff" stroke="#e1e1ec"/>

<text x="40" y="90" font-size="14" font-weight="700" fill="#202037">Simulateur package consultant</text>
<text x="40" y="120" font-size="11" font-weight="600" fill="#727496">SALAIRE BRUT MENSUEL *</text>
<rect x="40" y="128" width="200" height="34" rx="4" fill="#f3f3f7"/>
<text x="140" y="150" font-size="14" font-weight="600" fill="#202037" text-anchor="middle">4 500 €</text>
<text x="260" y="120" font-size="11" font-weight="600" fill="#727496">RÉGIME</text>
<rect x="260" y="128" width="180" height="34" rx="4" fill="#f3f3f7"/>
<text x="350" y="150" font-size="12" fill="#202037" text-anchor="middle">Temps plein</text>
<text x="40" y="185" font-size="12" font-weight="700" fill="#5b5fd6">Extras (optionnels)</text>
<rect x="40" y="200" width="24" height="24" rx="4" fill="#5b5fd6"/><path d="M 46 211 L 52 218 L 60 205" stroke="#fff" stroke-width="2.5" fill="none"/>
<text x="75" y="217" font-size="12" fill="#202037">Voiture — ATN 900€/mois</text>
<rect x="280" y="200" width="24" height="24" rx="4" fill="#5b5fd6"/><path d="M 286 211 L 292 218 L 300 205" stroke="#fff" stroke-width="2.5" fill="none"/>
<text x="315" y="217" font-size="12" fill="#202037">Chèques-repas 8€/j</text>
<rect x="500" y="200" width="24" height="24" rx="4" fill="#fff" stroke="#c2c3d6"/>
<text x="535" y="217" font-size="12" fill="#535679">Frais représentation</text>
<text x="40" y="255" font-size="12" font-weight="700" fill="#5b5fd6">Coût total employeur : 8 240 €/mois</text>
<text x="500" y="255" font-size="12" font-weight="600" fill="#059669">Net perçu : 2 890 €/mois</text>

<text x="20" y="325" font-size="11" fill="#535679" font-style="italic">Modélise un package RH complet : salaire + ATN + avantages + charges patronales.</text>
</svg>