<svg xmlns="http://www.w3.org/2000/svg" viewBox="0 0 900 340" font-family="-apple-system,'Segoe UI',sans-serif">
<rect width="900" height="340" fill="#f3f3f7"/>
<rect x="20" y="15" width="110" height="24" rx="12" fill="#5b5fd6"/>
<text x="75" y="31" font-size="10" font-weight="700" fill="#fff" text-anchor="middle">ÉTAPE 3 / 3</text>
<text x="140" y="33" font-size="12" font-weight="600" fill="#535679">Marquer payée → impact cashflow</text>
<rect x="20" y="60" width="860" height="220" rx="10" fill="#fff" stroke="#e1e1ec"/>

<rect x="20" y="60" width="860" height="220" rx="10" fill="#fff" stroke="#e1e1ec"/>
<text x="40" y="90" font-size="14" font-weight="700" fill="#202037">Cycle de vie facture fournisseur</text>
<rect x="40" y="115" width="200" height="60" rx="8" fill="#fef3c7"/>
<text x="140" y="145" font-size="13" font-weight="700" fill="#78350f" text-anchor="middle">TO_PAY</text>
<text x="140" y="163" font-size="9" fill="#92400e" text-anchor="middle">Saisie initiale</text>
<text x="260" y="150" font-size="18" fill="#5b5fd6">→</text>
<rect x="290" y="115" width="200" height="60" rx="8" fill="#dbeafe"/>
<text x="390" y="145" font-size="13" font-weight="700" fill="#1e40af" text-anchor="middle">SCHEDULED</text>
<text x="390" y="163" font-size="9" fill="#3730a3" text-anchor="middle">Virement programmé</text>
<text x="510" y="150" font-size="18" fill="#5b5fd6">→</text>
<rect x="540" y="115" width="200" height="60" rx="8" fill="#dcfce7"/>
<text x="640" y="145" font-size="13" font-weight="700" fill="#065f46" text-anchor="middle">PAID</text>
<text x="640" y="163" font-size="9" fill="#166534" text-anchor="middle">Débit confirmé</text>
<rect x="40" y="200" width="820" height="60" rx="8" fill="#eef2ff"/>
<text x="55" y="225" font-size="12" font-weight="700" fill="#5b5fd6">Effet cashflow : marqué PAID = OneOff catégorie "Achats fournisseurs" du mois</text>
<text x="55" y="245" font-size="11" fill="#535679">Ajoute automatiquement une ligne dépense à la date du paiement.</text>

<text x="20" y="325" font-size="11" fill="#535679" font-style="italic">TVA récupérable trimestriellement dans la déclaration.</text>
</svg>