<svg xmlns="http://www.w3.org/2000/svg" viewBox="0 0 900 340" font-family="-apple-system,'Segoe UI',sans-serif">
<rect width="900" height="340" fill="#f3f3f7"/>
<rect x="20" y="15" width="110" height="24" rx="12" fill="#5b5fd6"/>
<text x="75" y="31" font-size="10" font-weight="700" fill="#fff" text-anchor="middle">ÉTAPE 1 / 3</text>
<text x="140" y="33" font-size="12" font-weight="600" fill="#535679">/timesheet — grille semaine par jour</text>
<rect x="20" y="60" width="860" height="220" rx="10" fill="#fff" stroke="#e1e1ec"/>

<text x="40" y="90" font-size="14" font-weight="700" fill="#202037">Semaine du 20 → 26 juillet 2026</text>
<rect x="40" y="115" width="820" height="30" fill="#f3f3f7"/>
<text x="55" y="135" font-size="10" font-weight="700" fill="#727496">PROJET/MISSION</text>
<text x="380" y="135" font-size="10" font-weight="700" fill="#727496" text-anchor="middle">LUN</text>
<text x="450" y="135" font-size="10" font-weight="700" fill="#727496" text-anchor="middle">MAR</text>
<text x="520" y="135" font-size="10" font-weight="700" fill="#727496" text-anchor="middle">MER</text>
<text x="590" y="135" font-size="10" font-weight="700" fill="#727496" text-anchor="middle">JEU</text>
<text x="660" y="135" font-size="10" font-weight="700" fill="#727496" text-anchor="middle">VEN</text>
<text x="800" y="135" font-size="10" font-weight="700" fill="#727496" text-anchor="end">TOTAL</text>
<text x="55" y="170" font-size="12" fill="#202037">MISSION-2026-08 · ACME</text>
<rect x="345" y="155" width="60" height="24" fill="#dcfce7"/><text x="375" y="171" font-size="11" fill="#166534" text-anchor="middle">7,6</text>
<rect x="415" y="155" width="60" height="24" fill="#dcfce7"/><text x="445" y="171" font-size="11" fill="#166534" text-anchor="middle">7,6</text>
<rect x="485" y="155" width="60" height="24" fill="#dcfce7"/><text x="515" y="171" font-size="11" fill="#166534" text-anchor="middle">7,6</text>
<rect x="555" y="155" width="60" height="24" fill="#f3f3f7"/><text x="585" y="171" font-size="11" fill="#a1a1b8" text-anchor="middle">-</text>
<rect x="625" y="155" width="60" height="24" fill="#dcfce7"/><text x="655" y="171" font-size="11" fill="#166534" text-anchor="middle">7,6</text>
<text x="800" y="171" font-size="12" font-weight="700" fill="#059669" text-anchor="end">30,4 h</text>
<text x="55" y="205" font-size="12" fill="#202037">CC-FORMATION</text>
<rect x="555" y="190" width="60" height="24" fill="#e0e7ff"/><text x="585" y="206" font-size="11" fill="#3730a3" text-anchor="middle">7,6</text>
<text x="800" y="206" font-size="12" font-weight="700" fill="#5b5fd6" text-anchor="end">7,6 h</text>
<line x1="40" y1="220" x2="860" y2="220" stroke="#e1e1ec"/>
<text x="55" y="248" font-size="13" font-weight="700" fill="#202037">TOTAL SEMAINE</text>
<text x="800" y="248" font-size="16" font-weight="700" fill="#5b5fd6" text-anchor="end">38,0 / 38 h</text>

<text x="20" y="325" font-size="11" fill="#535679" font-style="italic">Clique une cellule pour saisir les heures. Auto-tabbé sur la ligne suivante avec Tab.</text>
</svg>