<svg xmlns="http://www.w3.org/2000/svg" viewBox="0 0 900 340" font-family="-apple-system,'Segoe UI',sans-serif"><rect width="900" height="340" fill="#f3f3f7"/><rect x="20" y="15" width="110" height="24" rx="12" fill="#5b5fd6"/><text x="75" y="31" font-size="10" font-weight="700" fill="#fff" text-anchor="middle">ÉTAPE 2 / 5</text><text x="140" y="33" font-size="12" font-weight="600" fill="#535679">Attributs consultant — photo, séniorité, langues</text><rect x="20" y="60" width="860" height="220" rx="10" fill="#fff" stroke="#e1e1ec"/><rect x="40" y="80" width="120" height="180" rx="8" fill="#f3f3f7" stroke="#c2c3d6" stroke-dasharray="4,4"/><text x="100" y="145" font-size="32" fill="#a1a1b8" text-anchor="middle">📷</text><text x="100" y="180" font-size="10" fill="#535679" text-anchor="middle">Upload photo</text><text x="100" y="195" font-size="9" fill="#a1a1b8" text-anchor="middle">Max 1 Mo</text><text x="180" y="100" font-size="11" font-weight="600" fill="#727496">TÉLÉPHONE</text><rect x="180" y="108" width="300" height="30" rx="4" fill="#f3f3f7"/><text x="195" y="128" font-size="12" fill="#202037">+32 477 55 44 33</text><text x="500" y="100" font-size="11" font-weight="600" fill="#727496">VILLE</text><rect x="500" y="108" width="340" height="30" rx="4" fill="#f3f3f7"/><text x="515" y="128" font-size="12" fill="#202037">Bruxelles</text><text x="180" y="160" font-size="11" font-weight="600" fill="#727496">SÉNIORITÉ</text><rect x="180" y="168" width="300" height="30" rx="4" fill="#f3f3f7"/><text x="195" y="188" font-size="12" fill="#202037">Senior</text><text x="500" y="160" font-size="11" font-weight="600" fill="#727496">ANNÉES XP</text><rect x="500" y="168" width="120" height="30" rx="4" fill="#f3f3f7"/><text x="560" y="188" font-size="14" font-weight="600" fill="#202037" text-anchor="middle">7</text><text x="640" y="160" font-size="11" font-weight="600" fill="#727496">LANGUES</text><rect x="640" y="168" width="200" height="30" rx="4" fill="#f3f3f7"/><text x="655" y="188" font-size="11" fill="#202037">FR, EN, NL</text><text x="180" y="220" font-size="11" font-weight="600" fill="#727496">LINKEDIN URL</text><rect x="180" y="228" width="660" height="30" rx="4" fill="#f3f3f7"/><text x="195" y="248" font-size="11" fill="#202037" font-family="monospace">linkedin.com/in/diane-nouveau</text><text x="20" y="325" font-size="11" fill="#535679" font-style="italic">Ces infos alimentent le CV consultant (affiché sur les propositions client).</text></svg>
