<svg xmlns="http://www.w3.org/2000/svg" viewBox="0 0 900 380" font-family="-apple-system,'Segoe UI',sans-serif"><rect width="900" height="380" fill="#f3f3f7"/><rect x="20" y="15" width="110" height="24" rx="12" fill="#5b5fd6"/><text x="75" y="31" font-size="10" font-weight="700" fill="#fff" text-anchor="middle">ÉTAPE 2 / 4</text><text x="140" y="33" font-size="12" font-weight="600" fill="#535679">Cocher les permissions par entrée sidebar</text><rect x="20" y="60" width="860" height="290" rx="10" fill="#fff" stroke="#e1e1ec"/><text x="40" y="90" font-size="12" font-weight="700" fill="#5b5fd6">RH &amp; Documents</text><rect x="40" y="105" width="24" height="24" rx="4" fill="#5b5fd6"/><path d="M 46 116 L 52 123 L 60 110" stroke="#fff" stroke-width="2.5" fill="none"/><text x="75" y="122" font-size="12" fill="#202037">leaves.read (voir tous les congés)</text><rect x="40" y="135" width="24" height="24" rx="4" fill="#5b5fd6"/><path d="M 46 146 L 52 153 L 60 140" stroke="#fff" stroke-width="2.5" fill="none"/><text x="75" y="152" font-size="12" fill="#202037">leaves.approve (approuver/refuser)</text><rect x="40" y="165" width="24" height="24" rx="4" fill="#5b5fd6"/><path d="M 46 176 L 52 183 L 60 170" stroke="#fff" stroke-width="2.5" fill="none"/><text x="75" y="182" font-size="12" fill="#202037">expenses.approve (approuver notes de frais)</text><rect x="40" y="195" width="24" height="24" rx="4" fill="#5b5fd6"/><path d="M 46 206 L 52 213 L 60 200" stroke="#fff" stroke-width="2.5" fill="none"/><text x="75" y="212" font-size="12" fill="#202037">users.manage (voir arrêts maladie)</text><rect x="40" y="225" width="24" height="24" rx="4" fill="#fff" stroke="#c2c3d6"/><text x="75" y="242" font-size="12" fill="#535679">cashflow.read (accès cashflow — non pertinent RH)</text><text x="40" y="285" font-size="12" font-weight="700" fill="#5b5fd6">Pilotage</text><rect x="40" y="300" width="24" height="24" rx="4" fill="#5b5fd6"/><path d="M 46 311 L 52 318 L 60 305" stroke="#fff" stroke-width="2.5" fill="none"/><text x="75" y="317" font-size="12" fill="#202037">dashboard.read (voir le tableau de bord)</text><text x="20" y="370" font-size="11" fill="#535679" font-style="italic">Perms regroupées par entrée sidebar pour visualiser ce que l'user pourra faire.</text></svg>
