<svg xmlns="http://www.w3.org/2000/svg" viewBox="0 0 900 340" font-family="-apple-system,'Segoe UI',sans-serif"><rect width="900" height="340" fill="#f3f3f7"/><rect x="20" y="15" width="110" height="24" rx="12" fill="#5b5fd6"/><text x="75" y="31" font-size="10" font-weight="700" fill="#fff" text-anchor="middle">ÉTAPE 3 / 5</text><text x="140" y="33" font-size="12" font-weight="600" fill="#535679">Coûts internes — VOIR ADMIN uniquement</text><rect x="20" y="60" width="860" height="220" rx="10" fill="#fff" stroke="#e1e1ec"/><rect x="40" y="80" width="820" height="60" rx="8" fill="#fef2f2" stroke="#ef4444"/><text x="60" y="105" font-size="12" font-weight="700" fill="#7f1d1d">🔒 Section confidentielle — jamais affichée au consultant lui-même</text><text x="60" y="125" font-size="11" fill="#991b1b">Ces montants servent au calcul de marge en interne.</text><text x="40" y="170" font-size="11" font-weight="600" fill="#727496">COÛT HORAIRE (dailyCost)</text><rect x="40" y="178" width="180" height="34" rx="4" fill="#f3f3f7"/><text x="130" y="200" font-size="14" font-weight="600" fill="#202037" text-anchor="middle">70 €</text><text x="240" y="170" font-size="11" font-weight="600" fill="#727496">COÛT JOURNALIER</text><rect x="240" y="178" width="180" height="34" rx="4" fill="#f3f3f7"/><text x="330" y="200" font-size="14" font-weight="600" fill="#202037" text-anchor="middle">450 €</text><text x="440" y="170" font-size="11" font-weight="600" fill="#727496">TAUX JOURNALIER VENDU</text><rect x="440" y="178" width="180" height="34" rx="4" fill="#dcfce7"/><text x="530" y="200" font-size="14" font-weight="700" fill="#059669" text-anchor="middle">625 €</text><text x="640" y="170" font-size="11" font-weight="600" fill="#727496">CAPA HEBDO</text><rect x="640" y="178" width="180" height="34" rx="4" fill="#f3f3f7"/><text x="730" y="200" font-size="14" font-weight="600" fill="#202037" text-anchor="middle">38 h</text><text x="40" y="240" font-size="11" fill="#059669" font-weight="600">Vendu (625) − Coût (450) = 175 € de marge journalière → 40% de marge</text><text x="20" y="325" font-size="11" fill="#535679" font-style="italic">Rate visible sur CV client. Cost jamais exposé côté consultant ni client.</text></svg>
