<svg xmlns="http://www.w3.org/2000/svg" viewBox="0 0 900 340" font-family="-apple-system,'Segoe UI',sans-serif"><rect width="900" height="340" fill="#f3f3f7"/><rect x="20" y="15" width="110" height="24" rx="12" fill="#5b5fd6"/><text x="75" y="31" font-size="10" font-weight="700" fill="#fff" text-anchor="middle">ÉTAPE 1 / 5</text><text x="140" y="33" font-size="12" font-weight="600" fill="#535679">Infos de base — email + rôle</text><rect x="20" y="60" width="860" height="220" rx="10" fill="#fff" stroke="#e1e1ec"/><text x="40" y="90" font-size="14" font-weight="700" fill="#202037">Nouvel utilisateur</text><text x="40" y="120" font-size="11" font-weight="600" fill="#727496">PRÉNOM *</text><rect x="40" y="128" width="240" height="34" rx="4" fill="#f3f3f7"/><text x="55" y="150" font-size="12" fill="#202037">Diane</text><text x="300" y="120" font-size="11" font-weight="600" fill="#727496">NOM *</text><rect x="300" y="128" width="240" height="34" rx="4" fill="#f3f3f7"/><text x="315" y="150" font-size="12" fill="#202037">Nouveau</text><text x="560" y="120" font-size="11" font-weight="600" fill="#727496">RÔLE *</text><rect x="560" y="128" width="280" height="34" rx="4" fill="#f3f3f7"/><text x="575" y="150" font-size="12" fill="#202037">CONSULTANT</text><text x="40" y="185" font-size="11" font-weight="600" fill="#727496">EMAIL *</text><rect x="40" y="193" width="500" height="34" rx="4" fill="#dcfce7" stroke="#059669"/><text x="55" y="215" font-size="13" fill="#202037" font-family="monospace">diane.nouveau@dasolabs.com</text><rect x="40" y="245" width="500" height="20" rx="4" fill="#eef2ff"/><text x="55" y="260" font-size="10" fill="#5b5fd6">💡 Email unique — sera l'identifiant de connexion</text><text x="20" y="325" font-size="11" fill="#535679" font-style="italic">Rôle = label (5 options : ADMIN, MANAGER, COMMERCIAL, CONSULTANT, FINANCE). Perms viennent des groupes.</text></svg>
