<?xml version="1.0" encoding="utf-8"?>
<!-- Generator: Adobe Illustrator 27.9.0, SVG Export Plug-In . SVG Version: 6.00 Build 0)  -->
<svg version="1.1" id="Calque_1" xmlns="http://www.w3.org/2000/svg" xmlns:xlink="http://www.w3.org/1999/xlink" x="0px" y="0px"
	 viewBox="0 0 400 500" style="enable-background:new 0 0 400 500;" xml:space="preserve">
<style type="text/css">
	.st0{clip-path:url(#SVGID_00000075154961221774331990000011462560213945493149_);}
	.st1{fill:#202037;}
</style>
<g>
	<g>
		<g>
			<defs>
				<rect id="SVGID_1_" y="0" width="400" height="500"/>
			</defs>
			<clipPath id="SVGID_00000154416078055369719820000000091846546549290896_">
				<use xlink:href="#SVGID_1_"  style="overflow:visible;"/>
			</clipPath>
			<g style="clip-path:url(#SVGID_00000154416078055369719820000000091846546549290896_);">
				<path class="st1" d="M208.6,352.8c29.2-4.7,48.9-32.2,44.2-61.4c-4.7-29.2-32.2-48.9-61.4-44.2s-48.9,32.2-44.2,61.4
					C152,337.7,179.4,357.5,208.6,352.8z"/>
				<path class="st1" d="M400,301.6c0-0.5,0-1.1,0-1.6s0-1.1,0-1.6V14.2c0-11.7-13.2-18.3-22.6-11.4c-40,29.2-68.7,72.9-78.4,123.4
					c-29.2-16.6-63-26.2-99-26.2C89.5,100,0,189.5,0,300s89.5,200,200,200s194.5-84.1,199.8-189.9c0.2-1,0.2-1.9,0.2-3V301.6z
					 M200,413.5c-62.7,0-113.5-50.8-113.5-113.5S137.3,186.5,200,186.5S313.5,237.3,313.5,300S262.7,413.5,200,413.5z"/>
			</g>
		</g>
	</g>
</g>
</svg>
