<?xml version="1.0" encoding="utf-8"?>
<!-- Generator: Adobe Illustrator 27.9.0, SVG Export Plug-In . SVG Version: 6.00 Build 0)  -->
<svg version="1.1" id="Calque_1" xmlns="http://www.w3.org/2000/svg" xmlns:xlink="http://www.w3.org/1999/xlink" x="0px" y="0px"
	 viewBox="0 0 897 703" style="enable-background:new 0 0 897 703;" xml:space="preserve">
<style type="text/css">
	.st0{fill:#202037;}
</style>
<path class="st0" d="M130.1,615.6c-23.8,0-39.1-16.8-39.1-42.9s15.7-44.4,40.8-44.4c10.2,0,20,4.1,24.8,10.2V489h25.4v124.4H158
	l-1.3-10.6C152.2,610.5,142,615.6,130.1,615.6L130.1,615.6z M136.2,592.3c11.9,0,20.1-8.2,20.1-20.6s-8.2-20.6-20.1-20.6
	s-19.6,8.4-19.6,20.6S124.2,592.3,136.2,592.3z M264.2,530.9h23.3v82.5h-23.9l-1.3-10.6c-4.8,6.3-13.9,12.9-26.9,12.9
	c-24.6,0-38.8-18.8-38.8-44.9c0-26.1,16-42.6,38.9-42.6c11.7,0,22.8,5.1,27.4,12.7L264.2,530.9z M261.9,572.2
	c0-12.4-8.2-20.6-20.1-20.6s-19.6,8.4-19.6,20.6s7.6,20.6,19.6,20.6S261.9,584.6,261.9,572.2z M299.1,587.4h24.1
	c0.3,5.8,4.6,9.2,12.4,9.2c7.8,0,11.5-2.8,11.5-7.1c0-2.5-1.3-5.1-7.4-6.4l-15.2-3.3c-15.2-3.3-22.6-9.9-22.6-24.4
	c0-17.2,14.7-27.1,34.5-27.1c19.8,0,32.5,11.2,32.5,27.9h-24.1c0-5.6-3.5-9.4-9.6-9.4c-5.8,0-9.4,3-9.4,7.4c0,3.8,3.1,5.9,8.9,7.3
	l15.3,3.3c13.5,3,21,9.2,21,22.5c0,17.7-15,28.4-36.5,28.4C313.1,615.6,299.1,604,299.1,587.4L299.1,587.4z M379.8,572
	c0-26.1,19.1-43.6,45.6-43.6c26.4,0,45.4,17.5,45.4,43.6s-19.1,43.4-45.4,43.4S379.8,598.1,379.8,572z M405.4,571.8
	c0,12.5,8.1,20.8,20,20.8c11.9,0,19.8-8.2,19.8-20.8c0-12.6-8.1-20.6-19.8-20.6C413.7,551.2,405.4,559.5,405.4,571.8z M509.9,613.4
	h-25.4V489h25.4V613.4L509.9,613.4z M592.2,530.9h23.3v82.5h-23.9l-1.3-10.6c-4.8,6.3-13.9,12.9-26.9,12.9
	c-24.6,0-38.8-18.8-38.8-44.9c0-26.1,16-42.6,39-42.6c11.7,0,22.8,5.1,27.4,12.7L592.2,530.9z M589.9,572.2
	c0-12.4-8.2-20.6-20.1-20.6s-19.6,8.4-19.6,20.6c0,12.2,7.6,20.6,19.6,20.6C581.8,592.8,589.9,584.5,589.9,572.2z M658.5,613.4
	h-23.9V489H660v51.5c5-7.4,15.8-12.4,27.7-12.4c23.1,0,37.8,18,37.8,44.9s-16.3,42.6-39.8,42.6c-11.5,0-21.5-5.1-25.9-12.7
	L658.5,613.4z M660.2,571.7c0,12.4,8.2,20.6,20.1,20.6c11.9,0,19.6-8.4,19.6-20.6c0-12.2-7.6-20.6-19.6-20.6
	C668.2,551,660.2,559.3,660.2,571.7z M734.2,587.3h24.1c0.3,5.8,4.6,9.2,12.4,9.2s11.5-2.8,11.5-7.1c0-2.5-1.3-5.1-7.4-6.4
	l-15.2-3.3c-15.2-3.3-22.6-9.9-22.6-24.4c0-17.2,14.7-27.1,34.5-27.1s32.5,11.2,32.5,27.9h-24.1c0-5.6-3.5-9.4-9.6-9.4
	c-5.8,0-9.4,3-9.4,7.4c0,3.8,3.1,5.9,8.9,7.3l15.3,3.3c13.5,3,21,9.2,21,22.5c0,17.7-15,28.4-36.5,28.4S734.2,604,734.2,587.3
	L734.2,587.3z"/>
<g>
	<g>
		<path class="st0" d="M453.4,309.2c18.4-3,30.8-20.3,27.9-38.7c-3-18.4-20.3-30.8-38.7-27.9c-18.4,3-30.8,20.3-27.9,38.7
			C417.7,299.8,435,312.2,453.4,309.2z"/>
		<path class="st0" d="M574,277c0-0.3,0-0.7,0-1s0-0.7,0-1v-179c0-7.3-8.3-11.5-14.3-7.2c-25.2,18.4-43.3,45.9-49.4,77.7
			C492,156,470.7,150,448,150c-69.6,0-126,56.4-126,126s56.4,126,126,126s122.5-53,125.8-119.6c0.1-0.6,0.2-1.2,0.2-1.9V277z
			 M448,347.5c-39.5,0-71.5-32-71.5-71.5s32-71.5,71.5-71.5s71.5,32,71.5,71.5S487.5,347.5,448,347.5z"/>
	</g>
</g>
</svg>
