<svg xmlns="http://www.w3.org/2000/svg" viewBox="0 0 1440 920" width="1440" height="920" font-family="Inter, -apple-system, BlinkMacSystemFont, Segoe UI, sans-serif">
  <rect width="1440" height="920" fill="#fafafc"/>
  <rect x="0" y="0" width="240" height="920" fill="#13131f"/>
  <rect x="20" y="16" width="36" height="36" fill="white" rx="6"/>
  <text x="38" y="41" font-size="22" fill="#13131f" font-weight="800" text-anchor="middle">d</text>
  <text x="66" y="33" font-size="13" fill="white" font-weight="600" text-anchor="start">Dasohub</text>
  <text x="66" y="48" font-size="10" fill="#9b9cb8" font-weight="400" text-anchor="start">Pilotage Dasolabs</text>
  <line x1="20" y1="66" x2="224" y2="66" stroke="rgba(255,255,255,0.06)" stroke-width="1"/>
  <text x="28" y="90" font-size="9" fill="#727496" font-weight="600" text-anchor="start">PILOTAGE</text>
  <g transform="translate(22,107) scale(0.6666666666666666)" fill="none" stroke="#c2c3d6" stroke-width="2" stroke-linecap="round" stroke-linejoin="round"><rect x="3" y="3" width="7" height="9" rx="1"/><rect x="14" y="3" width="7" height="5" rx="1"/><rect x="14" y="12" width="7" height="9" rx="1"/><rect x="3" y="16" width="7" height="5" rx="1"/></g>
  <text x="46" y="120" font-size="12" fill="#c2c3d6" font-weight="400" text-anchor="start">Tableau de bord</text>
  <g transform="translate(22,141) scale(0.6666666666666666)" fill="none" stroke="#c2c3d6" stroke-width="2" stroke-linecap="round" stroke-linejoin="round"><path d="M12 14l4-4"/><path d="M3.34 19a10 10 0 1 1 17.32 0"/></g>
  <text x="46" y="154" font-size="12" fill="#c2c3d6" font-weight="400" text-anchor="start">Statut projet</text>
  <g transform="translate(22,175) scale(0.6666666666666666)" fill="none" stroke="#c2c3d6" stroke-width="2" stroke-linecap="round" stroke-linejoin="round"><rect x="4" y="2" width="16" height="20" rx="2"/><line x1="8" y1="6" x2="16" y2="6"/><line x1="8" y1="14" x2="8" y2="14"/><line x1="12" y1="14" x2="12" y2="14"/><line x1="16" y1="14" x2="16" y2="14"/><line x1="8" y1="18" x2="8" y2="18"/><line x1="12" y1="18" x2="12" y2="18"/><line x1="16" y1="18" x2="16" y2="18"/></g>
  <text x="46" y="188" font-size="12" fill="#c2c3d6" font-weight="400" text-anchor="start">Simulateur package</text>
  <g transform="translate(22,209) scale(0.6666666666666666)" fill="none" stroke="#c2c3d6" stroke-width="2" stroke-linecap="round" stroke-linejoin="round"><polyline points="3 17 9 11 13 15 21 7"/><polyline points="14 7 21 7 21 14"/></g>
  <text x="46" y="222" font-size="12" fill="#c2c3d6" font-weight="400" text-anchor="start">Cashflow</text>
  <g transform="translate(22,243) scale(0.6666666666666666)" fill="none" stroke="#c2c3d6" stroke-width="2" stroke-linecap="round" stroke-linejoin="round"><line x1="19" y1="5" x2="5" y2="19"/><circle cx="6.5" cy="6.5" r="2.5"/><circle cx="17.5" cy="17.5" r="2.5"/></g>
  <text x="46" y="256" font-size="12" fill="#c2c3d6" font-weight="400" text-anchor="start">TVA trimestrielle</text>
  <g transform="translate(22,277) scale(0.6666666666666666)" fill="none" stroke="#c2c3d6" stroke-width="2" stroke-linecap="round" stroke-linejoin="round"><rect x="2" y="4" width="20" height="16" rx="2"/><path d="M2 10h20"/><path d="M6 7h.01"/><path d="M9 7h.01"/></g>
  <text x="46" y="290" font-size="12" fill="#c2c3d6" font-weight="400" text-anchor="start">Outils &amp; apps</text>
  <text x="28" y="320" font-size="9" fill="#727496" font-weight="600" text-anchor="start">COMMERCIALE</text>
  <g transform="translate(22,337) scale(0.6666666666666666)" fill="none" stroke="#c2c3d6" stroke-width="2" stroke-linecap="round" stroke-linejoin="round"><rect x="4" y="2" width="16" height="20" rx="1"/><path d="M9 22v-4h6v4"/><path d="M8 6h.01"/><path d="M16 6h.01"/><path d="M12 6h.01"/><path d="M12 10h.01"/><path d="M12 14h.01"/><path d="M16 10h.01"/><path d="M16 14h.01"/><path d="M8 10h.01"/><path d="M8 14h.01"/></g>
  <text x="46" y="350" font-size="12" fill="#c2c3d6" font-weight="400" text-anchor="start">Entreprises</text>
  <g transform="translate(22,371) scale(0.6666666666666666)" fill="none" stroke="#c2c3d6" stroke-width="2" stroke-linecap="round" stroke-linejoin="round"><path d="M16 21v-2a4 4 0 0 0-4-4H6a4 4 0 0 0-4 4v2"/><circle cx="9" cy="7" r="4"/><path d="M22 21v-2a4 4 0 0 0-3-3.87"/><path d="M16 3.13a4 4 0 0 1 0 7.75"/></g>
  <text x="46" y="384" font-size="12" fill="#c2c3d6" font-weight="400" text-anchor="start">Contacts</text>
  <g transform="translate(22,405) scale(0.6666666666666666)" fill="none" stroke="#c2c3d6" stroke-width="2" stroke-linecap="round" stroke-linejoin="round"><path d="M21 15a2 2 0 0 1-2 2H7l-4 4V5a2 2 0 0 1 2-2h14a2 2 0 0 1 2 2z"/></g>
  <text x="46" y="418" font-size="12" fill="#c2c3d6" font-weight="400" text-anchor="start">Activités commerciales</text>
  <g transform="translate(22,439) scale(0.6666666666666666)" fill="none" stroke="#c2c3d6" stroke-width="2" stroke-linecap="round" stroke-linejoin="round"><rect x="3" y="3" width="6" height="6" rx="1"/><rect x="15" y="15" width="6" height="6" rx="1"/><path d="M21 6h-7a2 2 0 0 0-2 2v8a2 2 0 0 1-2 2H3"/></g>
  <text x="46" y="452" font-size="12" fill="#c2c3d6" font-weight="400" text-anchor="start">CRM pipeline</text>
  <text x="28" y="482" font-size="9" fill="#727496" font-weight="600" text-anchor="start">CONSULTANCE</text>
  <rect x="12" y="492" width="216" height="30" fill="rgba(91,95,214,0.20)" rx="6"/>
  <g transform="translate(22,499) scale(0.6666666666666666)" fill="none" stroke="white" stroke-width="2" stroke-linecap="round" stroke-linejoin="round"><path d="M16 21v-2a4 4 0 0 0-4-4H5a4 4 0 0 0-4 4v2"/><circle cx="8.5" cy="7" r="4"/><line x1="20" y1="8" x2="20" y2="14"/><line x1="23" y1="11" x2="17" y2="11"/></g>
  <text x="46" y="512" font-size="12" fill="white" font-weight="500" text-anchor="start">Candidats</text>
  <g transform="translate(22,533) scale(0.6666666666666666)" fill="none" stroke="#c2c3d6" stroke-width="2" stroke-linecap="round" stroke-linejoin="round"><path d="M16 21v-2a4 4 0 0 0-4-4H6a4 4 0 0 0-4 4v2"/><circle cx="9" cy="7" r="4"/><path d="M22 21v-2a4 4 0 0 0-3-3.87"/><path d="M16 3.13a4 4 0 0 1 0 7.75"/></g>
  <text x="46" y="546" font-size="12" fill="#c2c3d6" font-weight="400" text-anchor="start">Consultants</text>
  <g transform="translate(22,567) scale(0.6666666666666666)" fill="none" stroke="#c2c3d6" stroke-width="2" stroke-linecap="round" stroke-linejoin="round"><path d="M3 11h3v8H4a1 1 0 0 1-1-1z"/><path d="M21 11h-3v8h2a1 1 0 0 0 1-1z"/><path d="M3 11a9 9 0 0 1 18 0"/></g>
  <text x="46" y="580" font-size="12" fill="#c2c3d6" font-weight="400" text-anchor="start">Demandes de mission</text>
  <g transform="translate(22,601) scale(0.6666666666666666)" fill="none" stroke="#c2c3d6" stroke-width="2" stroke-linecap="round" stroke-linejoin="round"><path d="M17.8 19.2L16 11l3.5-3.5C21 6 21.5 4 21 3c-1-.5-3 0-4.5 1.5L13 8 4.8 6.2c-.5-.1-.9.1-1.1.5l-.3.5c-.2.5-.1 1 .3 1.3L9 12l-2 3H4l-1 1 3 2 2 3 1-1v-3l3-2 3.5 5.3c.3.4.8.5 1.3.3l.5-.2c.4-.3.6-.7.5-1.2z"/></g>
  <text x="46" y="614" font-size="12" fill="#c2c3d6" font-weight="400" text-anchor="start">Missions</text>
  <g transform="translate(22,635) scale(0.6666666666666666)" fill="none" stroke="#c2c3d6" stroke-width="2" stroke-linecap="round" stroke-linejoin="round"><circle cx="5" cy="6" r="3"/><circle cx="19" cy="18" r="3"/><path d="M12 6h5a2 2 0 0 1 2 2v7"/><path d="M12 18H7a2 2 0 0 1-2-2V9"/></g>
  <text x="46" y="648" font-size="12" fill="#c2c3d6" font-weight="400" text-anchor="start">Matching mission</text>
  <g transform="translate(22,669) scale(0.6666666666666666)" fill="none" stroke="#c2c3d6" stroke-width="2" stroke-linecap="round" stroke-linejoin="round"><path d="M16 4h2a2 2 0 0 1 2 2v14a2 2 0 0 1-2 2H6a2 2 0 0 1-2-2V6a2 2 0 0 1 2-2h2"/><rect x="8" y="2" width="8" height="4" rx="1"/><path d="M9 14l2 2 4-4"/></g>
  <text x="46" y="682" font-size="12" fill="#c2c3d6" font-weight="400" text-anchor="start">Entretiens</text>
  <g transform="translate(22,703) scale(0.6666666666666666)" fill="none" stroke="#c2c3d6" stroke-width="2" stroke-linecap="round" stroke-linejoin="round"><rect x="3" y="4" width="18" height="18" rx="2"/><line x1="16" y1="2" x2="16" y2="6"/><line x1="8" y1="2" x2="8" y2="6"/><line x1="3" y1="10" x2="21" y2="10"/></g>
  <text x="46" y="716" font-size="12" fill="#c2c3d6" font-weight="400" text-anchor="start">Calendrier</text>
  <text x="28" y="746" font-size="9" fill="#727496" font-weight="600" text-anchor="start">PROJET</text>
  <g transform="translate(22,763) scale(0.6666666666666666)" fill="none" stroke="#c2c3d6" stroke-width="2" stroke-linecap="round" stroke-linejoin="round"><path d="M14 2H6a2 2 0 0 0-2 2v16a2 2 0 0 0 2 2h12a2 2 0 0 0 2-2V8z"/><polyline points="14 2 14 8 20 8"/><line x1="16" y1="13" x2="8" y2="13"/><line x1="16" y1="17" x2="8" y2="17"/><line x1="10" y1="9" x2="8" y2="9"/></g>
  <text x="46" y="776" font-size="12" fill="#c2c3d6" font-weight="400" text-anchor="start">Offres</text>
  <g transform="translate(22,797) scale(0.6666666666666666)" fill="none" stroke="#c2c3d6" stroke-width="2" stroke-linecap="round" stroke-linejoin="round"><path d="M3 7a2 2 0 0 1 2-2h4l2 2h8a2 2 0 0 1 2 2v9a2 2 0 0 1-2 2H5a2 2 0 0 1-2-2z"/><line x1="8" y1="10" x2="8" y2="17"/><line x1="12" y1="10" x2="12" y2="14"/><line x1="16" y1="10" x2="16" y2="16"/></g>
  <text x="46" y="810" font-size="12" fill="#c2c3d6" font-weight="400" text-anchor="start">Projets</text>
  <g transform="translate(22,831) scale(0.6666666666666666)" fill="none" stroke="#c2c3d6" stroke-width="2" stroke-linecap="round" stroke-linejoin="round"><circle cx="12" cy="12" r="10"/><polyline points="12 6 12 12 16 14"/></g>
  <text x="46" y="844" font-size="12" fill="#c2c3d6" font-weight="400" text-anchor="start">Timesheets</text>
  <g transform="translate(22,865) scale(0.6666666666666666)" fill="none" stroke="#c2c3d6" stroke-width="2" stroke-linecap="round" stroke-linejoin="round"><circle cx="9" cy="21" r="1"/><circle cx="20" cy="21" r="1"/><path d="M1 1h4l2.7 13.4a2 2 0 0 0 2 1.6h9.7a2 2 0 0 0 2-1.6L23 6H6"/></g>
  <text x="46" y="878" font-size="12" fill="#c2c3d6" font-weight="400" text-anchor="start">Achats</text>
  <g transform="translate(22,899) scale(0.6666666666666666)" fill="none" stroke="#c2c3d6" stroke-width="2" stroke-linecap="round" stroke-linejoin="round"><rect x="3" y="4" width="18" height="18" rx="2"/><line x1="16" y1="2" x2="16" y2="6"/><line x1="8" y1="2" x2="8" y2="6"/><line x1="3" y1="10" x2="21" y2="10"/><path d="M8 14h.01M12 14h.01M16 14h.01"/></g>
  <text x="46" y="912" font-size="12" fill="#c2c3d6" font-weight="400" text-anchor="start">Planning</text>
  <text x="28" y="942" font-size="9" fill="#727496" font-weight="600" text-anchor="start">FINANCES</text>
  <g transform="translate(22,959) scale(0.6666666666666666)" fill="none" stroke="#c2c3d6" stroke-width="2" stroke-linecap="round" stroke-linejoin="round"><path d="M4 2v20l2-1 2 1 2-1 2 1 2-1 2 1 2-1 2 1V2l-2 1-2-1-2 1-2-1-2 1-2-1-2 1z"/><line x1="8" y1="9" x2="16" y2="9"/><line x1="8" y1="13" x2="14" y2="13"/></g>
  <text x="46" y="972" font-size="12" fill="#c2c3d6" font-weight="400" text-anchor="start">Facturations</text>
  <text x="28" y="1002" font-size="9" fill="#727496" font-weight="600" text-anchor="start">RH &amp; DOCUMENTS</text>
  <g transform="translate(22,1019) scale(0.6666666666666666)" fill="none" stroke="#c2c3d6" stroke-width="2" stroke-linecap="round" stroke-linejoin="round"><path d="M22 10v6"/><path d="M2 10l10-5 10 5-10 5z"/><path d="M6 12v5c3 3 9 3 12 0v-5"/></g>
  <text x="46" y="1032" font-size="12" fill="#c2c3d6" font-weight="400" text-anchor="start">Onboarding</text>
  <g transform="translate(22,1053) scale(0.6666666666666666)" fill="none" stroke="#c2c3d6" stroke-width="2" stroke-linecap="round" stroke-linejoin="round"><path d="M15 2H6a2 2 0 0 0-2 2v16a2 2 0 0 0 2 2h12a2 2 0 0 0 2-2V7z"/><polyline points="15 2 15 7 20 7"/></g>
  <text x="46" y="1066" font-size="12" fill="#c2c3d6" font-weight="400" text-anchor="start">Documents</text>
  <text x="28" y="1096" font-size="9" fill="#727496" font-weight="600" text-anchor="start">CONFIGURATION</text>
  <g transform="translate(22,1113) scale(0.6666666666666666)" fill="none" stroke="#c2c3d6" stroke-width="2" stroke-linecap="round" stroke-linejoin="round"><path d="M3.85 8.62a4 4 0 0 1 4.78-4.77 4 4 0 0 1 6.74 0 4 4 0 0 1 4.78 4.78 4 4 0 0 1 0 6.74 4 4 0 0 1-4.77 4.78 4 4 0 0 1-6.75 0 4 4 0 0 1-4.78-4.77 4 4 0 0 1 0-6.76z"/><polyline points="9 12 11 14 15 10"/></g>
  <text x="46" y="1126" font-size="12" fill="#c2c3d6" font-weight="400" text-anchor="start">Profils</text>
  <g transform="translate(22,1147) scale(0.6666666666666666)" fill="none" stroke="#c2c3d6" stroke-width="2" stroke-linecap="round" stroke-linejoin="round"><path d="M12 3l1.9 5.8a2 2 0 0 0 1.3 1.3L21 12l-5.8 1.9a2 2 0 0 0-1.3 1.3L12 21l-1.9-5.8a2 2 0 0 0-1.3-1.3L3 12l5.8-1.9a2 2 0 0 0 1.3-1.3z"/></g>
  <text x="46" y="1160" font-size="12" fill="#c2c3d6" font-weight="400" text-anchor="start">Compétences</text>
  <g transform="translate(22,1181) scale(0.6666666666666666)" fill="none" stroke="#c2c3d6" stroke-width="2" stroke-linecap="round" stroke-linejoin="round"><rect x="2" y="7" width="20" height="14" rx="2"/><path d="M16 21V5a2 2 0 0 0-2-2h-4a2 2 0 0 0-2 2v16"/></g>
  <text x="46" y="1194" font-size="12" fill="#c2c3d6" font-weight="400" text-anchor="start">Centres de coûts</text>
  <g transform="translate(22,1215) scale(0.6666666666666666)" fill="none" stroke="#c2c3d6" stroke-width="2" stroke-linecap="round" stroke-linejoin="round"><circle cx="9" cy="7" r="4"/><path d="M2 21v-2a4 4 0 0 1 4-4h5"/><circle cx="19" cy="14" r="2"/><path d="M22.5 14.5l-1.4 .8M16.9 13.7l-1.4 .8M17.4 16.7l-1.4 -.8M22.1 14.5l-1.4 -.8M19 11.5v1.5M19 16v1.5"/></g>
  <text x="46" y="1228" font-size="12" fill="#c2c3d6" font-weight="400" text-anchor="start">Utilisateurs</text>
  <g transform="translate(22,1249) scale(0.6666666666666666)" fill="none" stroke="#c2c3d6" stroke-width="2" stroke-linecap="round" stroke-linejoin="round"><path d="M12 2l8 4v6c0 5-3.5 9.4-8 10-4.5-.6-8-5-8-10V6z"/><path d="M9 12l2 2 4-4"/></g>
  <text x="46" y="1262" font-size="12" fill="#c2c3d6" font-weight="400" text-anchor="start">Accès</text>
  <g transform="translate(22,1283) scale(0.6666666666666666)" fill="none" stroke="#c2c3d6" stroke-width="2" stroke-linecap="round" stroke-linejoin="round"><path d="M3 12a9 9 0 1 0 3-6.7L3 8"/><polyline points="3 3 3 8 8 8"/><path d="M12 7v5l4 2"/></g>
  <text x="46" y="1296" font-size="12" fill="#c2c3d6" font-weight="400" text-anchor="start">Audit trail</text>
  <g transform="translate(22,1317) scale(0.6666666666666666)" fill="none" stroke="#c2c3d6" stroke-width="2" stroke-linecap="round" stroke-linejoin="round"><path d="M12 15a3 3 0 1 0 0-6 3 3 0 0 0 0 6z"/><path d="M19.4 15a1.7 1.7 0 0 0 .3 1.8l.1.1a2 2 0 1 1-2.8 2.8l-.1-.1a1.7 1.7 0 0 0-1.8-.3 1.7 1.7 0 0 0-1 1.5V21a2 2 0 1 1-4 0v-.1a1.7 1.7 0 0 0-1.1-1.5 1.7 1.7 0 0 0-1.8.3l-.1.1a2 2 0 1 1-2.8-2.8l.1-.1a1.7 1.7 0 0 0 .3-1.8 1.7 1.7 0 0 0-1.5-1H3a2 2 0 1 1 0-4h.1a1.7 1.7 0 0 0 1.5-1.1 1.7 1.7 0 0 0-.3-1.8l-.1-.1a2 2 0 1 1 2.8-2.8l.1.1a1.7 1.7 0 0 0 1.8.3h.1a1.7 1.7 0 0 0 1-1.5V3a2 2 0 1 1 4 0v.1a1.7 1.7 0 0 0 1 1.5 1.7 1.7 0 0 0 1.8-.3l.1-.1a2 2 0 1 1 2.8 2.8l-.1.1a1.7 1.7 0 0 0-.3 1.8v.1a1.7 1.7 0 0 0 1.5 1H21a2 2 0 1 1 0 4h-.1a1.7 1.7 0 0 0-1.5 1z"/></g>
  <text x="46" y="1330" font-size="12" fill="#c2c3d6" font-weight="400" text-anchor="start">Paramètres</text>
  <line x1="20" y1="886" x2="224" y2="886" stroke="rgba(255,255,255,0.06)" stroke-width="1"/>
  <text x="28" y="906" font-size="10" fill="#9b9cb8" font-weight="400" text-anchor="start">v0.2 · 2026</text>
  <rect x="240" y="0" width="1200" height="56" fill="white"/>
  <line x1="240" y1="56" x2="1440" y2="56" stroke="#e4e4ec" stroke-width="1"/>
  <rect x="256" y="10" width="576" height="36" fill="rgba(245,245,249,0.4)" stroke="#e4e4ec" stroke-width="1" rx="6"/>
  <g transform="translate(266,20) scale(0.6666666666666666)" fill="none" stroke="#727496" stroke-width="2" stroke-linecap="round" stroke-linejoin="round"><circle cx="11" cy="11" r="8"/><line x1="21" y1="21" x2="16.65" y2="16.65"/></g>
  <text x="292" y="33" font-size="13" fill="#727496" font-weight="400" text-anchor="start">Rechercher…</text>
  <rect x="772" y="18" width="22" height="20" fill="white" stroke="#c2c3d6" stroke-width="1" rx="3"/>
  <text x="783" y="32" font-size="11" fill="#535679" font-weight="400" text-anchor="middle" font-family="ui-monospace, monospace">⌘</text>
  <rect x="798" y="18" width="22" height="20" fill="white" stroke="#c2c3d6" stroke-width="1" rx="3"/>
  <text x="809" y="32" font-size="11" fill="#535679" font-weight="400" text-anchor="middle" font-family="ui-monospace, monospace">K</text>
  <circle cx="1216" cy="28" r="16" fill="#202037"/>
  <text x="1216" y="33" font-size="11" fill="white" font-weight="600" text-anchor="middle">GD</text>
  <text x="1242" y="24" font-size="13" fill="#202037" font-weight="500" text-anchor="start">Gérald Devestele</text>
  <text x="1242" y="39" font-size="10" fill="#5b5fd6" font-weight="400" text-anchor="start">Admin</text>
  <g transform="translate(1380,22) scale(0.5833333333333334)" fill="none" stroke="#535679" stroke-width="2" stroke-linecap="round" stroke-linejoin="round"><polyline points="6 9 12 15 18 9"/></g>
  <text x="264" y="104" font-size="22" fill="#202037" font-weight="600" text-anchor="start">Candidats</text>
  <text x="264" y="124" font-size="13" fill="#535679" font-weight="400" text-anchor="start">48 candidat(s) — vivier consultance</text>
  <rect x="1220" y="96" width="180" height="36" fill="#202037" rx="8"/>
  <text x="1310" y="118" font-size="12" fill="white" font-weight="500" text-anchor="middle">+ Nouveau candidat</text>
  <rect x="264" y="156" width="240" height="40" fill="white" stroke="#e4e4ec" stroke-width="1" rx="8"/>
  <text x="278" y="182" font-size="12" fill="#727496" font-weight="400" text-anchor="start">Nom, email…</text>
  <rect x="516" y="156" width="240" height="40" fill="white" stroke="#e4e4ec" stroke-width="1" rx="8"/>
  <text x="530" y="182" font-size="12" fill="#727496" font-weight="400" text-anchor="start">Compétence (ex: react)</text>
  <rect x="768" y="156" width="280" height="40" fill="white" stroke="#e4e4ec" stroke-width="1" rx="8"/>
  <text x="782" y="182" font-size="12" fill="#535679" font-weight="400" text-anchor="start">Disponibles + indispo (par défaut)</text>
  <g transform="translate(1028,170) scale(0.6666666666666666)" fill="none" stroke="#535679" stroke-width="2" stroke-linecap="round" stroke-linejoin="round"><polyline points="6 9 12 15 18 9"/></g>
  <rect x="264.0" y="212" width="373.3333333333333" height="220" fill="white" stroke="#e4e4ec" stroke-width="1" rx="12"/>
  <circle cx="296.0" cy="244" r="18" fill="#5b5fd6"/>
  <text x="296.0" y="249" font-size="12" fill="white" font-weight="600" text-anchor="middle">ML</text>
  <text x="326.0" y="240" font-size="14" fill="#202037" font-weight="600" text-anchor="start">Marie L.</text>
  <text x="326.0" y="258" font-size="11" fill="#535679" font-weight="400" text-anchor="start">Sénior .NET · 8 ans</text>
  <rect x="537.3333333333333" y="232" width="72.5" height="20" fill="#e1e1ec" rx="10"/>
  <text x="573.5833333333333" y="246" font-size="10" fill="#262738" font-weight="500" text-anchor="middle">ACTIVE_CT</text>
  <rect x="284.0" y="290" width="26" height="22" fill="#e0e7ff" rx="11"/>
  <text x="297.0" y="304" font-size="10" fill="#4338ca" font-weight="500" text-anchor="middle">C#</text>
  <rect x="316.0" y="290" width="38" height="22" fill="#e0e7ff" rx="11"/>
  <text x="335.0" y="304" font-size="10" fill="#4338ca" font-weight="500" text-anchor="middle">.NET</text>
  <rect x="360.0" y="290" width="44" height="22" fill="#e0e7ff" rx="11"/>
  <text x="382.0" y="304" font-size="10" fill="#4338ca" font-weight="500" text-anchor="middle">Azure</text>
  <rect x="410.0" y="290" width="32" height="22" fill="#e0e7ff" rx="11"/>
  <text x="426.0" y="304" font-size="10" fill="#4338ca" font-weight="500" text-anchor="middle">K8s</text>
  <line x1="284.0" y1="336" x2="617.3333333333333" y2="336" stroke="#e4e4ec" stroke-width="1"/>
  <text x="284.0" y="362" font-size="9" fill="#535679" font-weight="600" text-anchor="start">TJM VENDU</text>
  <text x="284.0" y="386" font-size="18" fill="#202037" font-weight="600" text-anchor="start">560 €</text>
  <text x="617.3333333333333" y="362" font-size="9" fill="#535679" font-weight="600" text-anchor="end">MARGE</text>
  <text x="617.3333333333333" y="386" font-size="18" fill="#047857" font-weight="600" text-anchor="end">+38 %</text>
  <text x="284.0" y="408" font-size="10" fill="#727496" font-weight="400" text-anchor="start">Scénarios : 3 · MAJ 02/06/2026</text>
  <rect x="653.3333333333333" y="212" width="373.3333333333333" height="220" fill="white" stroke="#e4e4ec" stroke-width="1" rx="12"/>
  <circle cx="685.3333333333333" cy="244" r="18" fill="#5b5fd6"/>
  <text x="685.3333333333333" y="249" font-size="12" fill="white" font-weight="600" text-anchor="middle">AR</text>
  <text x="715.3333333333333" y="240" font-size="14" fill="#202037" font-weight="600" text-anchor="start">Adrien R.</text>
  <text x="715.3333333333333" y="258" font-size="11" fill="#535679" font-weight="400" text-anchor="start">Lead Java · 12 ans</text>
  <rect x="926.6666666666665" y="232" width="66.0" height="20" fill="#e1e1ec" rx="10"/>
  <text x="959.6666666666665" y="246" font-size="10" fill="#262738" font-weight="500" text-anchor="middle">INACTIVE</text>
  <rect x="673.3333333333333" y="290" width="38" height="22" fill="#e0e7ff" rx="11"/>
  <text x="692.3333333333333" y="304" font-size="10" fill="#4338ca" font-weight="500" text-anchor="middle">Java</text>
  <rect x="717.3333333333333" y="290" width="50" height="22" fill="#e0e7ff" rx="11"/>
  <text x="742.3333333333333" y="304" font-size="10" fill="#4338ca" font-weight="500" text-anchor="middle">Spring</text>
  <rect x="773.3333333333333" y="290" width="44" height="22" fill="#e0e7ff" rx="11"/>
  <text x="795.3333333333333" y="304" font-size="10" fill="#4338ca" font-weight="500" text-anchor="middle">Kafka</text>
  <line x1="673.3333333333333" y1="336" x2="1006.6666666666665" y2="336" stroke="#e4e4ec" stroke-width="1"/>
  <text x="673.3333333333333" y="362" font-size="9" fill="#535679" font-weight="600" text-anchor="start">TJM VENDU</text>
  <text x="673.3333333333333" y="386" font-size="18" fill="#202037" font-weight="600" text-anchor="start">620 €</text>
  <text x="1006.6666666666665" y="362" font-size="9" fill="#535679" font-weight="600" text-anchor="end">MARGE</text>
  <text x="1006.6666666666665" y="386" font-size="18" fill="#047857" font-weight="600" text-anchor="end">+42 %</text>
  <text x="673.3333333333333" y="408" font-size="10" fill="#727496" font-weight="400" text-anchor="start">Scénarios : 3 · MAJ 02/06/2026</text>
  <rect x="1042.6666666666665" y="212" width="373.3333333333333" height="220" fill="white" stroke="#e4e4ec" stroke-width="1" rx="12"/>
  <circle cx="1074.6666666666665" cy="244" r="18" fill="#5b5fd6"/>
  <text x="1074.6666666666665" y="249" font-size="12" fill="white" font-weight="600" text-anchor="middle">SD</text>
  <text x="1104.6666666666665" y="240" font-size="14" fill="#202037" font-weight="600" text-anchor="start">Sophia D.</text>
  <text x="1104.6666666666665" y="258" font-size="11" fill="#535679" font-weight="400" text-anchor="start">Full-stack React · 5 ans</text>
  <rect x="1315.9999999999998" y="232" width="72.5" height="20" fill="#e1e1ec" rx="10"/>
  <text x="1352.2499999999998" y="246" font-size="10" fill="#262738" font-weight="500" text-anchor="middle">ACTIVE_CT</text>
  <rect x="1062.6666666666665" y="290" width="44" height="22" fill="#e0e7ff" rx="11"/>
  <text x="1084.6666666666665" y="304" font-size="10" fill="#4338ca" font-weight="500" text-anchor="middle">React</text>
  <rect x="1112.6666666666665" y="290" width="26" height="22" fill="#e0e7ff" rx="11"/>
  <text x="1125.6666666666665" y="304" font-size="10" fill="#4338ca" font-weight="500" text-anchor="middle">TS</text>
  <rect x="1144.6666666666665" y="290" width="38" height="22" fill="#e0e7ff" rx="11"/>
  <text x="1163.6666666666665" y="304" font-size="10" fill="#4338ca" font-weight="500" text-anchor="middle">Node</text>
  <rect x="1188.6666666666665" y="290" width="56" height="22" fill="#e0e7ff" rx="11"/>
  <text x="1216.6666666666665" y="304" font-size="10" fill="#4338ca" font-weight="500" text-anchor="middle">GraphQL</text>
  <line x1="1062.6666666666665" y1="336" x2="1395.9999999999998" y2="336" stroke="#e4e4ec" stroke-width="1"/>
  <text x="1062.6666666666665" y="362" font-size="9" fill="#535679" font-weight="600" text-anchor="start">TJM VENDU</text>
  <text x="1062.6666666666665" y="386" font-size="18" fill="#202037" font-weight="600" text-anchor="start">520 €</text>
  <text x="1395.9999999999998" y="362" font-size="9" fill="#535679" font-weight="600" text-anchor="end">MARGE</text>
  <text x="1395.9999999999998" y="386" font-size="18" fill="#047857" font-weight="600" text-anchor="end">+30 %</text>
  <text x="1062.6666666666665" y="408" font-size="10" fill="#727496" font-weight="400" text-anchor="start">Scénarios : 3 · MAJ 02/06/2026</text>
  <rect x="264.0" y="448" width="373.3333333333333" height="220" fill="white" stroke="#e4e4ec" stroke-width="1" rx="12"/>
  <circle cx="296.0" cy="480" r="18" fill="#5b5fd6"/>
  <text x="296.0" y="485" font-size="12" fill="white" font-weight="600" text-anchor="middle">KM</text>
  <text x="326.0" y="476" font-size="14" fill="#202037" font-weight="600" text-anchor="start">Khalid M.</text>
  <text x="326.0" y="494" font-size="11" fill="#535679" font-weight="400" text-anchor="start">DevOps · 7 ans</text>
  <rect x="537.3333333333333" y="468" width="72.5" height="20" fill="#e1e1ec" rx="10"/>
  <text x="573.5833333333333" y="482" font-size="10" fill="#262738" font-weight="500" text-anchor="middle">ACTIVE_CT</text>
  <rect x="284.0" y="526" width="32" height="22" fill="#e0e7ff" rx="11"/>
  <text x="300.0" y="540" font-size="10" fill="#4338ca" font-weight="500" text-anchor="middle">K8s</text>
  <rect x="322.0" y="526" width="68" height="22" fill="#e0e7ff" rx="11"/>
  <text x="356.0" y="540" font-size="10" fill="#4338ca" font-weight="500" text-anchor="middle">Terraform</text>
  <rect x="396.0" y="526" width="32" height="22" fill="#e0e7ff" rx="11"/>
  <text x="412.0" y="540" font-size="10" fill="#4338ca" font-weight="500" text-anchor="middle">AWS</text>
  <line x1="284.0" y1="572" x2="617.3333333333333" y2="572" stroke="#e4e4ec" stroke-width="1"/>
  <text x="284.0" y="598" font-size="9" fill="#535679" font-weight="600" text-anchor="start">TJM VENDU</text>
  <text x="284.0" y="622" font-size="18" fill="#202037" font-weight="600" text-anchor="start">540 €</text>
  <text x="617.3333333333333" y="598" font-size="9" fill="#535679" font-weight="600" text-anchor="end">MARGE</text>
  <text x="617.3333333333333" y="622" font-size="18" fill="#047857" font-weight="600" text-anchor="end">+36 %</text>
  <text x="284.0" y="644" font-size="10" fill="#727496" font-weight="400" text-anchor="start">Scénarios : 3 · MAJ 02/06/2026</text>
  <rect x="653.3333333333333" y="448" width="373.3333333333333" height="220" fill="white" stroke="#e4e4ec" stroke-width="1" rx="12"/>
  <circle cx="685.3333333333333" cy="480" r="18" fill="#5b5fd6"/>
  <text x="685.3333333333333" y="485" font-size="12" fill="white" font-weight="600" text-anchor="middle">LG</text>
  <text x="715.3333333333333" y="476" font-size="14" fill="#202037" font-weight="600" text-anchor="start">Léna G.</text>
  <text x="715.3333333333333" y="494" font-size="11" fill="#535679" font-weight="400" text-anchor="start">Data Engineer · 6 ans</text>
  <rect x="926.6666666666665" y="468" width="72.5" height="20" fill="#e1e1ec" rx="10"/>
  <text x="962.9166666666665" y="482" font-size="10" fill="#262738" font-weight="500" text-anchor="middle">ACTIVE_CT</text>
  <rect x="673.3333333333333" y="526" width="50" height="22" fill="#e0e7ff" rx="11"/>
  <text x="698.3333333333333" y="540" font-size="10" fill="#4338ca" font-weight="500" text-anchor="middle">Python</text>
  <rect x="729.3333333333333" y="526" width="44" height="22" fill="#e0e7ff" rx="11"/>
  <text x="751.3333333333333" y="540" font-size="10" fill="#4338ca" font-weight="500" text-anchor="middle">Spark</text>
  <rect x="779.3333333333333" y="526" width="32" height="22" fill="#e0e7ff" rx="11"/>
  <text x="795.3333333333333" y="540" font-size="10" fill="#4338ca" font-weight="500" text-anchor="middle">dbt</text>
  <line x1="673.3333333333333" y1="572" x2="1006.6666666666665" y2="572" stroke="#e4e4ec" stroke-width="1"/>
  <text x="673.3333333333333" y="598" font-size="9" fill="#535679" font-weight="600" text-anchor="start">TJM VENDU</text>
  <text x="673.3333333333333" y="622" font-size="18" fill="#202037" font-weight="600" text-anchor="start">550 €</text>
  <text x="1006.6666666666665" y="598" font-size="9" fill="#535679" font-weight="600" text-anchor="end">MARGE</text>
  <text x="1006.6666666666665" y="622" font-size="18" fill="#047857" font-weight="600" text-anchor="end">+34 %</text>
  <text x="673.3333333333333" y="644" font-size="10" fill="#727496" font-weight="400" text-anchor="start">Scénarios : 3 · MAJ 02/06/2026</text>
  <rect x="1042.6666666666665" y="448" width="373.3333333333333" height="220" fill="white" stroke="#e4e4ec" stroke-width="1" rx="12"/>
  <circle cx="1074.6666666666665" cy="480" r="18" fill="#5b5fd6"/>
  <text x="1074.6666666666665" y="485" font-size="12" fill="white" font-weight="600" text-anchor="middle">VT</text>
  <text x="1104.6666666666665" y="476" font-size="14" fill="#202037" font-weight="600" text-anchor="start">Vincent T.</text>
  <text x="1104.6666666666665" y="494" font-size="11" fill="#535679" font-weight="400" text-anchor="start">Architecte cloud · 15 ans</text>
  <rect x="1315.9999999999998" y="468" width="66.0" height="20" fill="#e1e1ec" rx="10"/>
  <text x="1348.9999999999998" y="482" font-size="10" fill="#262738" font-weight="500" text-anchor="middle">INACTIVE</text>
  <rect x="1062.6666666666665" y="526" width="32" height="22" fill="#e0e7ff" rx="11"/>
  <text x="1078.6666666666665" y="540" font-size="10" fill="#4338ca" font-weight="500" text-anchor="middle">AWS</text>
  <rect x="1100.6666666666665" y="526" width="68" height="22" fill="#e0e7ff" rx="11"/>
  <text x="1134.6666666666665" y="540" font-size="10" fill="#4338ca" font-weight="500" text-anchor="middle">Terraform</text>
  <rect x="1174.6666666666665" y="526" width="32" height="22" fill="#e0e7ff" rx="11"/>
  <text x="1190.6666666666665" y="540" font-size="10" fill="#4338ca" font-weight="500" text-anchor="middle">K8s</text>
  <line x1="1062.6666666666665" y1="572" x2="1395.9999999999998" y2="572" stroke="#e4e4ec" stroke-width="1"/>
  <text x="1062.6666666666665" y="598" font-size="9" fill="#535679" font-weight="600" text-anchor="start">TJM VENDU</text>
  <text x="1062.6666666666665" y="622" font-size="18" fill="#202037" font-weight="600" text-anchor="start">680 €</text>
  <text x="1395.9999999999998" y="598" font-size="9" fill="#535679" font-weight="600" text-anchor="end">MARGE</text>
  <text x="1395.9999999999998" y="622" font-size="18" fill="#047857" font-weight="600" text-anchor="end">+44 %</text>
  <text x="1062.6666666666665" y="644" font-size="10" fill="#727496" font-weight="400" text-anchor="start">Scénarios : 3 · MAJ 02/06/2026</text>
  <rect x="264.0" y="684" width="373.3333333333333" height="220" fill="white" stroke="#e4e4ec" stroke-width="1" rx="12"/>
  <circle cx="296.0" cy="716" r="18" fill="#5b5fd6"/>
  <text x="296.0" y="721" font-size="12" fill="white" font-weight="600" text-anchor="middle">CB</text>
  <text x="326.0" y="712" font-size="14" fill="#202037" font-weight="600" text-anchor="start">Camille B.</text>
  <text x="326.0" y="730" font-size="11" fill="#535679" font-weight="400" text-anchor="start">QA Lead · 9 ans</text>
  <rect x="537.3333333333333" y="704" width="72.5" height="20" fill="#e1e1ec" rx="10"/>
  <text x="573.5833333333333" y="718" font-size="10" fill="#262738" font-weight="500" text-anchor="middle">ACTIVE_CT</text>
  <rect x="284.0" y="762" width="56" height="22" fill="#e0e7ff" rx="11"/>
  <text x="312.0" y="776" font-size="10" fill="#4338ca" font-weight="500" text-anchor="middle">Cypress</text>
  <rect x="346.0" y="762" width="74" height="22" fill="#e0e7ff" rx="11"/>
  <text x="383.0" y="776" font-size="10" fill="#4338ca" font-weight="500" text-anchor="middle">Playwright</text>
  <line x1="284.0" y1="808" x2="617.3333333333333" y2="808" stroke="#e4e4ec" stroke-width="1"/>
  <text x="284.0" y="834" font-size="9" fill="#535679" font-weight="600" text-anchor="start">TJM VENDU</text>
  <text x="284.0" y="858" font-size="18" fill="#202037" font-weight="600" text-anchor="start">510 €</text>
  <text x="617.3333333333333" y="834" font-size="9" fill="#535679" font-weight="600" text-anchor="end">MARGE</text>
  <text x="617.3333333333333" y="858" font-size="18" fill="#047857" font-weight="600" text-anchor="end">+33 %</text>
  <text x="284.0" y="880" font-size="10" fill="#727496" font-weight="400" text-anchor="start">Scénarios : 3 · MAJ 02/06/2026</text>
  <rect x="653.3333333333333" y="684" width="373.3333333333333" height="220" fill="white" stroke="#e4e4ec" stroke-width="1" rx="12"/>
  <circle cx="685.3333333333333" cy="716" r="18" fill="#5b5fd6"/>
  <text x="685.3333333333333" y="721" font-size="12" fill="white" font-weight="600" text-anchor="middle">IK</text>
  <text x="715.3333333333333" y="712" font-size="14" fill="#202037" font-weight="600" text-anchor="start">Ibrahim K.</text>
  <text x="715.3333333333333" y="730" font-size="11" fill="#535679" font-weight="400" text-anchor="start">Sénior Python · 10 ans</text>
  <rect x="926.6666666666665" y="704" width="72.5" height="20" fill="#e1e1ec" rx="10"/>
  <text x="962.9166666666665" y="718" font-size="10" fill="#262738" font-weight="500" text-anchor="middle">ACTIVE_CT</text>
  <rect x="673.3333333333333" y="762" width="50" height="22" fill="#e0e7ff" rx="11"/>
  <text x="698.3333333333333" y="776" font-size="10" fill="#4338ca" font-weight="500" text-anchor="middle">Python</text>
  <rect x="729.3333333333333" y="762" width="50" height="22" fill="#e0e7ff" rx="11"/>
  <text x="754.3333333333333" y="776" font-size="10" fill="#4338ca" font-weight="500" text-anchor="middle">Django</text>
  <rect x="785.3333333333333" y="762" width="56" height="22" fill="#e0e7ff" rx="11"/>
  <text x="813.3333333333333" y="776" font-size="10" fill="#4338ca" font-weight="500" text-anchor="middle">FastAPI</text>
  <line x1="673.3333333333333" y1="808" x2="1006.6666666666665" y2="808" stroke="#e4e4ec" stroke-width="1"/>
  <text x="673.3333333333333" y="834" font-size="9" fill="#535679" font-weight="600" text-anchor="start">TJM VENDU</text>
  <text x="673.3333333333333" y="858" font-size="18" fill="#202037" font-weight="600" text-anchor="start">560 €</text>
  <text x="1006.6666666666665" y="834" font-size="9" fill="#535679" font-weight="600" text-anchor="end">MARGE</text>
  <text x="1006.6666666666665" y="858" font-size="18" fill="#047857" font-weight="600" text-anchor="end">+38 %</text>
  <text x="673.3333333333333" y="880" font-size="10" fill="#727496" font-weight="400" text-anchor="start">Scénarios : 3 · MAJ 02/06/2026</text>
  <rect x="1042.6666666666665" y="684" width="373.3333333333333" height="220" fill="white" stroke="#e4e4ec" stroke-width="1" rx="12"/>
  <circle cx="1074.6666666666665" cy="716" r="18" fill="#5b5fd6"/>
  <text x="1074.6666666666665" y="721" font-size="12" fill="white" font-weight="600" text-anchor="middle">EM</text>
  <text x="1104.6666666666665" y="712" font-size="14" fill="#202037" font-weight="600" text-anchor="start">Eva M.</text>
  <text x="1104.6666666666665" y="730" font-size="11" fill="#535679" font-weight="400" text-anchor="start">UI Designer · 7 ans</text>
  <rect x="1315.9999999999998" y="704" width="72.5" height="20" fill="#e1e1ec" rx="10"/>
  <text x="1352.2499999999998" y="718" font-size="10" fill="#262738" font-weight="500" text-anchor="middle">ACTIVE_CT</text>
  <rect x="1062.6666666666665" y="762" width="44" height="22" fill="#e0e7ff" rx="11"/>
  <text x="1084.6666666666665" y="776" font-size="10" fill="#4338ca" font-weight="500" text-anchor="middle">Figma</text>
  <rect x="1112.6666666666665" y="762" width="62" height="22" fill="#e0e7ff" rx="11"/>
  <text x="1143.6666666666665" y="776" font-size="10" fill="#4338ca" font-weight="500" text-anchor="middle">Tailwind</text>
  <rect x="1180.6666666666665" y="762" width="68" height="22" fill="#e0e7ff" rx="11"/>
  <text x="1214.6666666666665" y="776" font-size="10" fill="#4338ca" font-weight="500" text-anchor="middle">Storybook</text>
  <line x1="1062.6666666666665" y1="808" x2="1395.9999999999998" y2="808" stroke="#e4e4ec" stroke-width="1"/>
  <text x="1062.6666666666665" y="834" font-size="9" fill="#535679" font-weight="600" text-anchor="start">TJM VENDU</text>
  <text x="1062.6666666666665" y="858" font-size="18" fill="#202037" font-weight="600" text-anchor="start">490 €</text>
  <text x="1395.9999999999998" y="834" font-size="9" fill="#535679" font-weight="600" text-anchor="end">MARGE</text>
  <text x="1395.9999999999998" y="858" font-size="18" fill="#047857" font-weight="600" text-anchor="end">+29 %</text>
  <text x="1062.6666666666665" y="880" font-size="10" fill="#727496" font-weight="400" text-anchor="start">Scénarios : 3 · MAJ 02/06/2026</text>
</svg>
